<?xml version="1.0" encoding="UTF-8" standalone="no"?>
<svg width="62px" height="62px" viewBox="0 0 62 62" version="1.1" xmlns="http://www.w3.org/2000/svg" xmlns:xlink="http://www.w3.org/1999/xlink" xmlns:sketch="http://www.bohemiancoding.com/sketch/ns">
    <!-- Generator: Sketch 3.4.4 (17249) - http://www.bohemiancoding.com/sketch -->
    <title>twitter copy + Rectangle 12</title>
    <desc>Created with Sketch.</desc>
    <defs></defs>
    <g id="blog" stroke="none" stroke-width="1" fill="none" fill-rule="evenodd" sketch:type="MSPage">
        <g id="White-blog" sketch:type="MSArtboardGroup" transform="translate(-597.000000, -2144.000000)">
            <g id="icons-copy-2" sketch:type="MSLayerGroup" transform="translate(597.000000, 2144.000000)">
                <g id="twitter-copy-+-Rectangle-12" sketch:type="MSShapeGroup">
                    <path d="M31,61.879357 C48.1208272,61.879357 62,48.0271911 62,30.9396785 C62,13.8521659 48.1208272,0 31,0 C13.8791728,0 0,13.8521659 0,30.9396785 C0,48.0271911 13.8791728,61.879357 31,61.879357 Z" id="twitter-copy" fill="#C29B6C"></path>
                    <path d="M43,27.0176376 L43,43.3301768 C43,44.438481 42.1102368,45.336939 40.9964051,45.336939 L20.0035949,45.336939 C18.89704,45.336939 18,44.4489963 18,43.3301768 L18,27.0176376 L15.0074612,27.0176376 C13.898771,27.0176376 13.6435887,26.3987622 14.446987,25.6262138 L29.053013,11.5810472 C29.8521619,10.812585 31.1435887,10.8084988 31.946987,11.5810472 L46.553013,25.6262138 C47.3521619,26.3946759 47.0996545,27.0176376 45.9925388,27.0176376 L43,27.0176376 Z" id="Rectangle-12" fill="#F8F8F8"></path>
                </g>
            </g>
        </g>
    </g>
</svg>