<?xml version="1.0" encoding="UTF-8" standalone="no"?>
<svg width="511px" height="193px" viewBox="0 0 511 193" version="1.1" xmlns="http://www.w3.org/2000/svg" xmlns:xlink="http://www.w3.org/1999/xlink" xmlns:sketch="http://www.bohemiancoding.com/sketch/ns">
    <!-- Generator: Sketch 3.4.4 (17249) - http://www.bohemiancoding.com/sketch -->
    <title>logo_top + Group</title>
    <desc>Created with Sketch.</desc>
    <defs>
        <path id="path-1" d="M0,0.86325 L356.392653,0.86325 L356.392653,28 L0,28 L0,0.86325 Z"></path>
        <path id="path-3" d="M0,0.86325 L356.392653,0.86325 L356.392653,28 L0,28 L0,0.86325 Z"></path>
        <path id="path-5" d="M0,0.86325 L356.392653,0.86325 L356.392653,28 L0,28 L0,0.86325 Z"></path>
        <path id="path-7" d="M0,0.86325 L356.392653,0.86325 L356.392653,28 L0,28"></path>
    </defs>
    <g id="top" stroke="none" stroke-width="1" fill="none" fill-rule="evenodd" sketch:type="MSPage">
        <g id="White-top" sketch:type="MSArtboardGroup" transform="translate(-464.000000, -354.000000)">
            <g id="logo_top-+-Group" sketch:type="MSLayerGroup" transform="translate(464.000000, 354.000000)">
                <g id="logo_top" sketch:type="MSShapeGroup">
                    <g id="top">
                        <g id="White-top">
                            <g id="we-take-photographie-+-Page-1">
                                <g id="Page-1">
                                    <g id="Group-9" transform="translate(0.000000, 23.000000)" fill-opacity="0.720646513" fill="#5C5A5A">
                                        <path d="M86.0434525,0.2792 L103.192772,103.6712 L28.2447794,103.6712 L11.0974486,0.2792 L0.0304214008,0.2792 L17.1777521,103.6712 L17.225472,103.9552 L18.4761296,111.4912 L18.9990595,114.6412 L105.010102,114.6412 L106.065904,121.0012 L108.821725,121.0012 L107.765923,114.6412 L116.625908,114.6412 L114.806589,103.6712 L105.946604,103.6712 L88.7992735,0.2792 L86.0434525,0.2792 L86.0434525,0.2792 Z" id="Fill-1"></path>
                                        <path d="M125.881172,0.2792 L127.340604,9.0732 L118.480619,9.0732 L120.299938,20.0432 L129.159923,20.0432 L145.905611,121.0012 L148.657456,121.0012 L131.913755,20.0432 L206.861747,20.0432 L223.605448,121.0012 L234.672475,121.0012 L217.926786,20.0432 L217.020109,14.5672 L216.107467,9.0732 L130.094436,9.0732 L128.635004,0.2792 L125.881172,0.2792 L125.881172,0.2792 Z" id="Fill-3"></path>
                                        <path d="M332.755644,1.496 L349.503321,102.472 L274.555329,102.472 L257.807652,1.496 L246.760508,1.496 L263.508185,102.472 L264.414862,107.948 L265.327504,113.44 L351.320652,113.44 L352.778096,122.218 L355.549823,122.218 L354.094368,113.44 L362.936458,113.44 L361.117139,102.472 L352.273061,102.472 L335.525384,1.496 L332.755644,1.496 L332.755644,1.496 Z" id="Fill-5"></path>
                                        <path d="M372.593363,1.496 L373.653142,7.876 L364.809064,7.876 L366.628383,18.844 L375.470472,18.844 L392.615815,122.218 L395.387542,122.218 L378.2422,18.844 L453.170309,18.844 L470.31764,122.218 L481.384667,122.218 L464.064352,17.796 L463.730313,15.784 L463.4599,14.144 L462.418017,7.876 L376.422881,7.876 L375.365091,1.496 L372.593363,1.496 L372.593363,1.496 Z" id="Fill-7"></path>
                                    </g>
                                    <g id="Group-18" transform="translate(28.836576, 0.000000)" fill="#FEFEFE">
                                        <path d="M86.6977405,0.1132 L103.84706,103.5052 L28.8990673,103.5052 L11.7517366,0.1132 L0.68470934,0.1132 L17.8320401,103.5052 L17.9970712,104.4952 L18.9176665,110.0472 L19.6533475,114.4752 L105.66439,114.4752 L106.720192,120.8372 L109.476013,120.8372 L108.420211,114.4752 L117.280196,114.4752 L115.460877,103.5052 L106.600892,103.5052 L89.4535615,0.1132 L86.6977405,0.1132 L86.6977405,0.1132 Z" id="Fill-10"></path>
                                        <path d="M126.519354,0.1132 L127.978786,8.9092 L119.134708,8.9092 L120.954027,19.8772 L129.796117,19.8772 L146.541805,120.8372 L149.311545,120.8372 L132.567844,19.8772 L207.513848,19.8772 L224.259537,120.8372 L235.310658,120.8372 L218.564969,19.8772 L217.658292,14.4012 L216.747638,8.9092 L130.748525,8.9092 L129.289093,0.1132 L126.519354,0.1132 L126.519354,0.1132 Z" id="Fill-12"></path>
                                        <path d="M333.413511,1.3462 L350.157212,102.3042 L275.209219,102.3042 L258.463531,1.3462 L247.416387,1.3462 L264.162075,102.3042 L265.068753,107.7822 L265.981395,113.2742 L351.976531,113.2742 L353.431986,122.0542 L356.203714,122.0542 L354.748258,113.2742 L363.592336,113.2742 L361.773017,102.3042 L352.926951,102.3042 L336.181262,1.3462 L333.413511,1.3462 L333.413511,1.3462 Z" id="Fill-14"></path>
                                        <path d="M373.25123,1.3462 L374.307032,7.7102 L365.462954,7.7102 L367.282273,18.6762 L376.124363,18.6762 L393.271693,122.0542 L396.025526,122.0542 L378.880184,18.6762 L453.824199,18.6762 L470.97153,122.0542 L482.040546,122.0542 L464.891226,18.6762 L464.384203,15.6162 L464.306658,15.1462 L463.073896,7.7102 L377.060865,7.7102 L376.005063,1.3462 L373.25123,1.3462 L373.25123,1.3462 Z" id="Fill-16"></path>
                                    </g>
                                </g>
                            </g>
                        </g>
                    </g>
                </g>
                <g id="Group" transform="translate(78.000000, 165.000000)">
                    <mask id="mask-2" sketch:name="Clip 2" fill="white">
                        <use xlink:href="#path-1"></use>
                    </mask>
                    <g id="Clip-2"></g>
                    <path d="M20.2757143,21.195875 L19.6291837,21.195875 L13.7038776,5.050125 L8.52428571,21.195875 L7.83367347,21.195875 L3.14265306,5.9455 C2.72020408,4.557125 2.41897959,3.636375 2.23163265,3.179625 C2.04428571,2.722875 1.80183673,2.38575 1.50061224,2.16825 C1.19938776,1.95075 0.696122449,1.831125 -0.00183673469,1.7985 L-0.00183673469,1.13875 L7.30469388,1.13875 L7.30469388,1.7985 C6.42306122,1.860125 5.85734694,1.987 5.61122449,2.186375 C5.3577551,2.382125 5.23653061,2.66125 5.23653061,3.012875 C5.23653061,3.331875 5.43857143,4.1475 5.83897959,5.456125 L9.31408163,16.864 L14.3908163,1.13875 L15.1953061,1.13875 L20.907551,16.864 L23.8757143,6.4675 C24.2687755,5.061 24.4671429,4.14025 24.4671429,3.708875 C24.4671429,2.432875 23.7912245,1.7985 22.4430612,1.7985 L22.4430612,1.13875 L27.7512245,1.13875 L27.7512245,1.7985 C26.965102,1.860125 26.3810204,2.150125 26.0026531,2.67575 C25.6169388,3.19775 25.1320408,4.45925 24.5516327,6.453 L20.2757143,21.195875 Z" id="Fill-1" fill="#FFFFFF" sketch:type="MSShapeGroup" mask="url(#mask-2)"></path>
                    <path d="M37.078898,12.317525 C37.1082857,12.092775 37.1229796,11.897025 37.1229796,11.723025 C37.1229796,10.8784 36.8731837,10.21865 36.3846122,9.751025 C35.8886939,9.287025 35.2862449,9.055025 34.5662449,9.055025 C32.8250204,9.055025 31.789102,10.1389 31.4548163,12.317525 L37.078898,12.317525 Z M39.591551,12.890275 L31.3960408,12.890275 C31.3556327,13.4594 31.3409388,13.88715 31.3409388,14.166275 C31.3409388,16.2434 31.6605306,17.805775 32.3070612,18.8534 C32.9535918,19.8974 33.9160408,20.415775 35.1980816,20.415775 C36.9393061,20.415775 38.1735918,19.632775 38.9009388,18.066775 L39.591551,18.066775 C39.2829796,19.0419 38.6768571,19.814025 37.7658367,20.36865 C36.8548163,20.91965 35.8666531,21.19515 34.7976735,21.19515 C33.7984898,21.19515 32.8617551,20.945025 31.976449,20.437525 C31.0911429,19.937275 30.3674694,19.219525 29.8054286,18.291525 C29.2360408,17.3744 28.9568571,16.247025 28.9568571,14.93115 C28.9568571,13.06065 29.5005306,11.50915 30.591551,10.273025 C31.6825714,9.033275 33.0454286,8.417025 34.6837959,8.417025 C36.2229796,8.417025 37.4131837,8.888275 38.2544082,9.830775 C39.0956327,10.773275 39.5401224,11.7919 39.591551,12.890275 L39.591551,12.890275 Z" id="Fill-4" fill="#FFFFFF" sketch:type="MSShapeGroup" mask="url(#mask-2)"></path>
                    <path d="M58.1906939,13.5 L56.6257959,14.138 C54.1572245,15.14575 52.9229388,16.418125 52.9229388,17.947875 C52.9229388,18.556875 53.080898,19.042625 53.3968163,19.416 C53.7127347,19.78575 54.1241633,19.970625 54.631102,19.970625 C55.0792653,19.970625 55.600898,19.822 56.196,19.52475 C56.7874286,19.223875 57.4523265,18.774375 58.1906939,18.179875 L58.1906939,13.5 Z M62.3527347,18.556875 L62.8817143,18.556875 C62.7972245,20.202625 61.9927347,21.0255 60.4719184,21.0255 C59.8180408,21.0255 59.3074286,20.847875 58.9290612,20.507125 C58.5506939,20.159125 58.3045714,19.644375 58.1906939,18.95925 C57.2319184,19.644375 56.3613061,20.159125 55.5715102,20.507125 C54.7817143,20.847875 54.0764082,21.0255 53.4555918,21.0255 C52.658449,21.0255 51.9788571,20.7935 51.4021224,20.333125 C50.8290612,19.87275 50.5425306,19.2565 50.5425306,18.498875 C50.5425306,17.505625 51.0237551,16.63925 51.9862041,15.89975 C52.9449796,15.156625 54.2747755,14.43525 55.9682449,13.732 L58.1906939,12.822125 L58.1906939,12.242125 C58.1906939,11.4265 58.1355918,10.832 58.0327347,10.465875 C57.9262041,10.103375 57.6543673,9.777125 57.213551,9.487125 C56.7727347,9.197125 56.196,9.052125 55.4796735,9.052125 C54.0433469,9.052125 53.2425306,9.53425 53.080898,10.4985 C52.9266122,11.47725 52.5262041,11.97025 51.876,11.97025 C51.2919184,11.97025 51.0017143,11.6875 51.0017143,11.132875 C51.0017143,10.581875 51.3874286,9.994625 52.1625306,9.36025 C52.9376327,8.733125 54.1425306,8.41775 55.780898,8.41775 C56.9931429,8.41775 57.9372245,8.60625 58.6057959,8.994125 C59.2743673,9.378375 59.7188571,9.817 59.9355918,10.306375 C60.1486531,10.799375 60.2551837,11.54975 60.2551837,12.561125 L60.2551837,17.346125 C60.2551837,18.459 60.3139592,19.17675 60.4278367,19.492125 C60.5453878,19.811125 60.7915102,19.970625 61.173551,19.970625 C61.8053878,19.970625 62.198449,19.49575 62.3527347,18.556875 L62.3527347,18.556875 Z" id="Fill-6" fill="#FFFFFF" sketch:type="MSShapeGroup" mask="url(#mask-2)"></path>
                    <path d="M69.4263673,11.4326625 C69.7533061,10.5771625 70.2786122,9.8594125 71.0133061,9.2794125 C71.7443265,8.7066625 72.4606531,8.4166625 73.1586122,8.4166625 C73.7867755,8.4166625 74.2863673,8.6160375 74.6500408,9.0075375 C75.0137143,9.3990375 75.1937143,9.8086625 75.1937143,10.2219125 C75.1937143,10.5010375 75.1018776,10.7402875 74.9145306,10.9432875 C74.7271837,11.1462875 74.503102,11.2477875 74.2349388,11.2477875 C73.7573878,11.2477875 73.3937143,10.8925375 73.1439184,10.1784125 C72.9712653,9.6962875 72.7141224,9.4570375 72.3688163,9.4570375 C71.9573878,9.4570375 71.4651429,9.7361625 70.8884082,10.3016625 C70.3153469,10.8671625 69.9516735,11.4471625 69.7863673,12.0561625 C69.6247347,12.6651625 69.5402449,13.4916625 69.5402449,14.5537875 L69.5402449,16.6635375 C69.5402449,17.9250375 69.5586122,18.7189125 69.5916735,19.0451625 C69.6284082,19.3714125 69.7643265,19.6251625 69.9994286,19.7991625 C70.2418776,19.9695375 70.668,20.0565375 71.2777959,20.0565375 L71.6782041,20.0565375 L71.6782041,20.7235375 L65.4369796,20.7235375 L65.4369796,20.0565375 L65.7382041,20.0565375 C66.3112653,20.0565375 66.7226939,19.9767875 66.9651429,19.8172875 C67.2075918,19.6614125 67.3582041,19.4366625 67.4022857,19.1502875 C67.4537143,18.8602875 67.4757551,18.0301625 67.4757551,16.6635375 L67.4757551,13.3249125 C67.4757551,12.0561625 67.4610612,11.2586625 67.4243265,10.9360375 C67.3912653,10.6097875 67.2553469,10.3632875 67.0165714,10.1856625 C66.7777959,10.0080375 66.3516735,9.9174125 65.7382041,9.9174125 L65.4369796,9.9174125 L65.4369796,9.2649125 C66.3369796,9.1597875 67.5124898,8.8770375 68.9671837,8.4166625 C69.2463673,9.1742875 69.3969796,10.1820375 69.4263673,11.4326625" id="Fill-8" fill="#FFFFFF" sketch:type="MSShapeGroup" mask="url(#mask-2)"></path>
                    <path d="M85.8313469,12.317525 C85.8607347,12.092775 85.8754286,11.897025 85.8754286,11.723025 C85.8754286,10.8784 85.6293061,10.21865 85.1370612,9.751025 C84.6448163,9.287025 84.0386939,9.055025 83.3186939,9.055025 C81.5811429,9.055025 80.5452245,10.1389 80.2072653,12.317525 L85.8313469,12.317525 Z M88.344,12.890275 L80.1484898,12.890275 C80.1117551,13.4594 80.0933878,13.88715 80.0933878,14.166275 C80.0933878,16.2434 80.4129796,17.805775 81.0595102,18.8534 C81.7060408,19.8974 82.6721633,20.415775 83.9505306,20.415775 C85.6954286,20.415775 86.9297143,19.632775 87.6533878,18.066775 L88.344,18.066775 C88.039102,19.0419 87.4329796,19.814025 86.5182857,20.36865 C85.6109388,20.91965 84.6227755,21.19515 83.5501224,21.19515 C82.5546122,21.19515 81.6178776,20.945025 80.728898,20.437525 C79.8472653,19.937275 79.1235918,19.219525 78.5578776,18.291525 C77.9921633,17.3744 77.7093061,16.247025 77.7093061,14.93115 C77.7093061,13.06065 78.2529796,11.50915 79.344,10.273025 C80.4350204,9.033275 81.7978776,8.417025 83.4362449,8.417025 C84.979102,8.417025 86.1693061,8.888275 87.0068571,9.830775 C87.8517551,10.773275 88.2962449,11.7919 88.344,12.890275 L88.344,12.890275 Z" id="Fill-10" fill="#FFFFFF" sketch:type="MSShapeGroup" mask="url(#mask-2)"></path>
                    <path d="M103.77551,18.4985125 C104.293469,19.1328875 104.837143,19.6113875 105.417551,19.9340125 C105.994286,20.2566375 106.607755,20.4161375 107.246939,20.4161375 C108.326939,20.4161375 109.27102,19.9485125 110.07551,19.0168875 C110.88,18.0852625 111.280408,16.5953875 111.280408,14.5545125 C111.280408,12.7855125 110.89102,11.4623875 110.119592,10.5815125 C109.34449,9.7042625 108.418776,9.2656375 107.349796,9.2656375 C106.688571,9.2656375 106.060408,9.4360125 105.46898,9.7767625 C104.873878,10.1102625 104.311837,10.6177625 103.77551,11.3065125 L103.77551,18.4985125 Z M103.143673,8.4173875 L103.533061,8.4173875 C103.694694,8.9538875 103.77551,9.6063875 103.77551,10.3640125 C104.385306,9.7115125 105.046531,9.2221375 105.748163,8.8995125 C106.453469,8.5805125 107.19551,8.4173875 107.981633,8.4173875 C109.605306,8.4173875 110.957143,8.9901375 112.040816,10.1428875 C113.120816,11.2920125 113.660816,12.8145125 113.660816,14.6958875 C113.660816,16.5482625 113.117143,18.0961375 112.033469,19.3322625 C110.946122,20.5756375 109.517143,21.1955125 107.750204,21.1955125 C107.022857,21.1955125 106.324898,21.0505125 105.663673,20.7568875 C104.995102,20.4668875 104.366939,20.0282625 103.77551,19.4518875 L103.77551,23.9432625 C103.77551,25.3098875 103.801224,26.1436375 103.852653,26.4408875 C103.904082,26.7381375 104.054694,26.9628875 104.308163,27.1151375 C104.554286,27.2637625 105.017143,27.3362625 105.696735,27.3362625 L105.696735,27.9996375 L99.5583673,27.9996375 L99.5583673,27.3362625 L99.9881633,27.3362625 C100.664082,27.3362625 101.104898,27.2347625 101.314286,27.0390125 C101.52,26.8432625 101.637551,26.6040125 101.674286,26.3321375 C101.707347,26.0602625 101.722041,25.2591375 101.722041,23.9432625 L101.722041,13.1951375 C101.722041,11.9336375 101.707347,11.1433875 101.674286,10.8135125 C101.637551,10.4836375 101.501633,10.2371375 101.262857,10.0631375 C101.024082,9.8891375 100.597959,9.8057625 99.9881633,9.8057625 L99.5583673,9.8057625 L99.5583673,9.1387625 C100.502449,9.0408875 101.7,8.7980125 103.143673,8.4173875 L103.143673,8.4173875 Z" id="Fill-12" fill="#FFFFFF" sketch:type="MSShapeGroup" mask="url(#mask-2)"></path>
                    <mask id="mask-4" sketch:name="Clip 15" fill="white">
                        <use xlink:href="#path-3"></use>
                    </mask>
                    <g id="Clip-15"></g>
                    <path d="M120.969918,10.84505 C121.54298,10.03305 122.185837,9.427675 122.89849,9.021675 C123.611143,8.6193 124.393592,8.4163 125.245837,8.4163 C126.211959,8.4163 127.012776,8.6193 127.648286,9.021675 C128.283796,9.427675 128.698898,9.9243 128.889918,10.5188 C129.080939,11.109675 129.176449,12.0703 129.176449,13.400675 L129.176449,16.663175 C129.176449,18.047925 129.202163,18.89255 129.257265,19.193425 C129.308694,19.490675 129.466653,19.708175 129.723796,19.845925 C129.980939,19.983675 130.45849,20.056175 131.156449,20.056175 L131.156449,20.723175 L125.087878,20.723175 L125.087878,20.056175 L125.359714,20.056175 C126.057673,20.056175 126.50951,19.9583 126.715224,19.751675 C126.920939,19.5523 127.03849,19.31305 127.075224,19.03755 C127.108286,18.765675 127.126653,17.975425 127.126653,16.663175 L127.126653,13.110675 C127.126653,12.1283 127.067878,11.399675 126.954,10.928425 C126.840122,10.457175 126.564612,10.065675 126.142163,9.761175 C125.716041,9.449425 125.179714,9.29355 124.544204,9.29355 C123.79849,9.29355 123.126245,9.514675 122.534816,9.9533 C121.939714,10.391925 121.418082,11.051675 120.969918,11.928925 L120.969918,16.663175 C120.969918,17.99355 120.991959,18.809175 121.036041,19.1173 C121.076449,19.425425 121.219714,19.66105 121.473184,19.82055 C121.719306,19.98005 122.174816,20.056175 122.836041,20.056175 L122.836041,20.723175 L116.866653,20.723175 L116.866653,20.056175 L117.167878,20.056175 C117.854816,20.056175 118.299306,19.9583 118.508694,19.758925 C118.714408,19.563175 118.831959,19.32755 118.868694,19.055675 C118.901755,18.77655 118.916449,17.982675 118.916449,16.663175 L118.916449,4.8783 C118.916449,3.68205 118.802571,2.92805 118.582163,2.612675 C118.354408,2.293675 117.818082,2.134175 116.965837,2.134175 L116.965837,1.4708 C118.446245,1.4708 119.680531,1.264175 120.668694,0.8618 L120.969918,0.8618 L120.969918,10.84505 Z" id="Fill-14" fill="#FFFFFF" sketch:type="MSShapeGroup" mask="url(#mask-4)"></path>
                    <path d="M136.61449,14.859375 C136.61449,16.954625 136.952449,18.426375 137.632041,19.271 C138.311633,20.112 139.263061,20.5325 140.49,20.5325 C141.742653,20.5325 142.697755,20.112 143.366327,19.271 C144.031224,18.426375 144.361837,16.954625 144.361837,14.859375 C144.361837,12.778625 144.034898,11.296 143.373673,10.407875 C142.712449,9.51975 141.75,9.081125 140.49,9.081125 C139.233673,9.081125 138.274898,9.51975 137.61,10.40425 C136.945102,11.285125 136.61449,12.771375 136.61449,14.859375 M134.234082,14.78325 C134.234082,12.974375 134.836531,11.46275 136.041429,10.24475 C137.246327,9.02675 138.726735,8.41775 140.49,8.41775 C142.256939,8.41775 143.744694,9.02675 144.953265,10.252 C146.158163,11.473625 146.760612,12.981625 146.760612,14.78325 C146.760612,16.777 146.147143,18.346625 144.923878,19.484875 C143.696939,20.630375 142.216531,21.195875 140.49,21.195875 C138.756122,21.195875 137.283061,20.6195 136.063469,19.4595 C134.843878,18.2995 134.234082,16.744375 134.234082,14.78325" id="Fill-17" fill="#FFFFFF" sketch:type="MSShapeGroup" mask="url(#mask-4)"></path>
                    <path d="M157.248735,9.5563625 L153.703837,9.5563625 L153.703837,16.7084875 C153.703837,17.8032375 153.755265,18.5427375 153.847102,18.9233625 C153.946286,19.3039875 154.148327,19.6084875 154.456898,19.8404875 C154.769143,20.0688625 155.103429,20.1884875 155.456082,20.1884875 C156.14302,20.1884875 156.741796,19.7933625 157.248735,18.9994875 L157.707918,19.2786125 C157.414041,19.9129875 156.976898,20.3914875 156.39649,20.7141125 C155.816082,21.0367375 155.232,21.1962375 154.636898,21.1962375 C153.949959,21.1962375 153.34751,20.9932375 152.822204,20.5836125 C152.300571,20.1776125 151.973633,19.6954875 151.845061,19.1481125 C151.71649,18.5971125 151.654041,17.6364875 151.654041,16.2626125 L151.654041,9.5563625 L149.945878,9.5563625 L149.945878,8.8893625 C150.732,8.8748625 151.433633,8.5413625 152.054449,7.8961125 C152.678939,7.2508625 153.072,6.3446125 153.244653,5.1809875 L153.703837,5.1809875 L153.703837,8.8893625 L157.248735,8.8893625 L157.248735,9.5563625 Z" id="Fill-19" fill="#FFFFFF" sketch:type="MSShapeGroup" mask="url(#mask-4)"></path>
                    <path d="M162.576,14.859375 C162.576,16.954625 162.917633,18.426375 163.593551,19.271 C164.276816,20.112 165.228245,20.5325 166.45151,20.5325 C167.704163,20.5325 168.662939,20.112 169.327837,19.271 C169.996408,18.426375 170.323347,16.954625 170.323347,14.859375 C170.323347,12.778625 169.996408,11.296 169.335184,10.407875 C168.673959,9.51975 167.71151,9.081125 166.45151,9.081125 C165.198857,9.081125 164.240082,9.51975 163.57151,10.40425 C162.910286,11.285125 162.576,12.771375 162.576,14.859375 M160.195592,14.78325 C160.195592,12.974375 160.798041,11.46275 162.002939,10.24475 C163.207837,9.02675 164.691918,8.41775 166.45151,8.41775 C168.222122,8.41775 169.706204,9.02675 170.914776,10.252 C172.119673,11.473625 172.722122,12.981625 172.722122,14.78325 C172.722122,16.777 172.112327,18.346625 170.885388,19.484875 C169.662122,20.630375 168.181714,21.195875 166.45151,21.195875 C164.721306,21.195875 163.244571,20.6195 162.02498,19.4595 C160.805388,18.2995 160.195592,16.744375 160.195592,14.78325" id="Fill-21" fill="#FFFFFF" sketch:type="MSShapeGroup" mask="url(#mask-4)"></path>
                    <path d="M178.766082,13.0824 C178.766082,14.32215 179.019551,15.23565 179.52649,15.812025 C180.037102,16.3884 180.679959,16.6784 181.462408,16.6784 C182.193429,16.6784 182.817918,16.3884 183.335878,15.819275 C183.861184,15.246525 184.118327,14.24965 184.118327,12.8359 C184.118327,11.411275 183.842816,10.4289 183.284449,9.888775 C182.733429,9.352275 182.105265,9.0804 181.407306,9.0804 C180.525673,9.0804 179.868122,9.4139 179.427306,10.077275 C178.990163,10.74065 178.766082,11.744775 178.766082,13.0824 M185.224041,9.932275 C186.035878,9.0079 186.858735,8.5439 187.692612,8.5439 C188.151796,8.5439 188.508122,8.670775 188.761592,8.9209 C189.015061,9.17465 189.139959,9.446525 189.139959,9.743775 C189.139959,10.37815 188.853429,10.69715 188.280367,10.69715 C187.964449,10.69715 187.692612,10.5014 187.461184,10.106275 C187.255469,9.74015 187.031388,9.555275 186.803633,9.555275 C186.439959,9.555275 186.035878,9.809025 185.595061,10.30565 C186.094653,11.099525 186.344449,11.9369 186.344449,12.8214 C186.344449,13.97415 185.93302,14.9964 185.110163,15.8809 C184.287306,16.7799 182.898735,17.2584 180.948122,17.327275 C178.920367,17.392525 177.90649,17.8094 177.90649,18.57065 C177.90649,18.922275 178.134245,19.17965 178.593429,19.321025 C179.045265,19.4769 179.99302,19.589275 181.436694,19.6654 C183.012612,19.74515 184.228531,19.893775 185.080776,20.104025 C185.93302,20.32515 186.612612,20.76015 187.115878,21.416275 C187.62649,22.068775 187.876286,22.84815 187.876286,23.7544 C187.876286,25.026775 187.362,26.05265 186.329755,26.832025 C185.293837,27.6114 183.809755,27.999275 181.86649,27.999275 C180.084857,27.999275 178.663224,27.6549 177.590571,26.9589 C176.521592,26.266525 175.981592,25.3929 175.981592,24.3344 C175.981592,23.743525 176.135878,23.265025 176.440776,22.888025 C176.749347,22.51465 177.182816,22.32615 177.748531,22.32615 C177.902816,22.32615 178.042408,22.351525 178.163633,22.39865 C177.572204,23.05115 177.274653,23.743525 177.274653,24.4794 C177.274653,25.324025 177.667714,26.02365 178.45751,26.578275 C179.247306,27.1329 180.42649,27.4084 181.995061,27.4084 C183.394653,27.4084 184.482,27.129275 185.260776,26.563775 C186.039551,25.998275 186.428939,25.280525 186.428939,24.403275 C186.428939,23.439025 186.079959,22.76115 185.382,22.36965 C184.684041,21.981775 183.438735,21.7534 181.649755,21.677275 C179.596286,21.590275 178.259143,21.329275 177.645673,20.908775 C177.035878,20.495525 176.727306,19.959025 176.727306,19.306525 C176.727306,18.045025 177.605265,17.25115 179.353837,16.9249 C178.44649,16.38115 177.763224,15.7649 177.304041,15.072525 C176.844857,14.38015 176.613429,13.608025 176.613429,12.7489 C176.613429,11.5454 177.087306,10.52315 178.027714,9.68215 C178.971796,8.837525 180.084857,8.417025 181.377918,8.417025 C182.975878,8.417025 184.257918,8.9209 185.224041,9.932275" id="Fill-23" fill="#FFFFFF" sketch:type="MSShapeGroup" mask="url(#mask-4)"></path>
                    <path d="M195.171061,11.4326625 C195.494327,10.5771625 196.023306,9.8594125 196.758,9.2794125 C197.48902,8.7066625 198.201673,8.4166625 198.903306,8.4166625 C199.531469,8.4166625 200.027388,8.6160375 200.394735,9.0075375 C200.758408,9.3990375 200.938408,9.8086625 200.938408,10.2219125 C200.938408,10.5010375 200.846571,10.7402875 200.659224,10.9432875 C200.471878,11.1462875 200.244122,11.2477875 199.979633,11.2477875 C199.498408,11.2477875 199.134735,10.8925375 198.888612,10.1784125 C198.715959,9.6962875 198.458816,9.4570375 198.11351,9.4570375 C197.698408,9.4570375 197.209837,9.7361625 196.633102,10.3016625 C196.060041,10.8671625 195.692694,11.4471625 195.531061,12.0561625 C195.365755,12.6651625 195.284939,13.4916625 195.284939,14.5537875 L195.284939,16.6635375 C195.284939,17.9250375 195.299633,18.7189125 195.336367,19.0451625 C195.369429,19.3714125 195.505347,19.6251625 195.744122,19.7991625 C195.982898,19.9695375 196.40902,20.0565375 197.02249,20.0565375 L197.422898,20.0565375 L197.422898,20.7235375 L191.181673,20.7235375 L191.181673,20.0565375 L191.482898,20.0565375 C192.055959,20.0565375 192.467388,19.9767875 192.709837,19.8172875 C192.952286,19.6614125 193.099224,19.4366625 193.14698,19.1502875 C193.194735,18.8602875 193.220449,18.0301625 193.220449,16.6635375 L193.220449,13.3249125 C193.220449,12.0561625 193.202082,11.2586625 193.16902,10.9360375 C193.132286,10.6097875 192.996367,10.3632875 192.761265,10.1856625 C192.518816,10.0080375 192.092694,9.9174125 191.482898,9.9174125 L191.181673,9.9174125 L191.181673,9.2649125 C192.078,9.1597875 193.257184,8.8770375 194.711878,8.4166625 C194.987388,9.1742875 195.141673,10.1820375 195.171061,11.4326625" id="Fill-25" fill="#FFFFFF" sketch:type="MSShapeGroup" mask="url(#mask-4)"></path>
                    <path d="M211.131184,13.5 L209.566286,14.138 C207.097714,15.14575 205.863429,16.418125 205.863429,17.947875 C205.863429,18.556875 206.021388,19.042625 206.337306,19.416 C206.653224,19.78575 207.064653,19.970625 207.571592,19.970625 C208.019755,19.970625 208.541388,19.822 209.13649,19.52475 C209.727918,19.223875 210.392816,18.774375 211.131184,18.179875 L211.131184,13.5 Z M215.293224,18.556875 L215.822204,18.556875 C215.737714,20.202625 214.933224,21.0255 213.412408,21.0255 C212.758531,21.0255 212.247918,20.847875 211.869551,20.507125 C211.491184,20.159125 211.245061,19.644375 211.131184,18.95925 C210.172408,19.644375 209.301796,20.159125 208.512,20.507125 C207.722204,20.847875 207.016898,21.0255 206.396082,21.0255 C205.598939,21.0255 204.919347,20.7935 204.342612,20.333125 C203.769551,19.87275 203.48302,19.2565 203.48302,18.498875 C203.48302,17.505625 203.964245,16.63925 204.926694,15.89975 C205.885469,15.156625 207.215265,14.43525 208.908735,13.732 L211.131184,12.822125 L211.131184,12.242125 C211.131184,11.4265 211.076082,10.832 210.973224,10.465875 C210.866694,10.103375 210.594857,9.777125 210.154041,9.487125 C209.713224,9.197125 209.13649,9.052125 208.420163,9.052125 C206.983837,9.052125 206.18302,9.53425 206.021388,10.4985 C205.867102,11.47725 205.466694,11.97025 204.81649,11.97025 C204.232408,11.97025 203.942204,11.6875 203.942204,11.132875 C203.942204,10.581875 204.327918,9.994625 205.10302,9.36025 C205.878122,8.733125 207.08302,8.41775 208.721388,8.41775 C209.933633,8.41775 210.877714,8.60625 211.546286,8.994125 C212.214857,9.378375 212.659347,9.817 212.876082,10.306375 C213.089143,10.799375 213.195673,11.54975 213.195673,12.561125 L213.195673,17.346125 C213.195673,18.459 213.254449,19.17675 213.368327,19.492125 C213.485878,19.811125 213.732,19.970625 214.114041,19.970625 C214.745878,19.970625 215.138939,19.49575 215.293224,18.556875 L215.293224,18.556875 Z" id="Fill-27" fill="#FFFFFF" sketch:type="MSShapeGroup" mask="url(#mask-4)"></path>
                    <path d="M221.739061,18.4985125 C222.25702,19.1328875 222.800694,19.6113875 223.381102,19.9340125 C223.957837,20.2566375 224.571306,20.4161375 225.21049,20.4161375 C226.29049,20.4161375 227.234571,19.9485125 228.039061,19.0168875 C228.843551,18.0852625 229.243959,16.5953875 229.243959,14.5545125 C229.243959,12.7855125 228.854571,11.4623875 228.083143,10.5815125 C227.308041,9.7042625 226.382327,9.2656375 225.313347,9.2656375 C224.652122,9.2656375 224.023959,9.4360125 223.432531,9.7767625 C222.837429,10.1102625 222.275388,10.6177625 221.739061,11.3065125 L221.739061,18.4985125 Z M221.107224,8.4173875 L221.496612,8.4173875 C221.658245,8.9538875 221.739061,9.6063875 221.739061,10.3640125 C222.348857,9.7115125 223.010082,9.2221375 223.711714,8.8995125 C224.41702,8.5805125 225.159061,8.4173875 225.945184,8.4173875 C227.568857,8.4173875 228.920694,8.9901375 230.004367,10.1428875 C231.084367,11.2920125 231.624367,12.8145125 231.624367,14.6958875 C231.624367,16.5482625 231.080694,18.0961375 229.99702,19.3322625 C228.909673,20.5756375 227.480694,21.1955125 225.713755,21.1955125 C224.986408,21.1955125 224.288449,21.0505125 223.627224,20.7568875 C222.958653,20.4668875 222.33049,20.0282625 221.739061,19.4518875 L221.739061,23.9432625 C221.739061,25.3098875 221.764776,26.1436375 221.816204,26.4408875 C221.867633,26.7381375 222.018245,26.9628875 222.271714,27.1151375 C222.517837,27.2637625 222.980694,27.3362625 223.660286,27.3362625 L223.660286,27.9996375 L217.521918,27.9996375 L217.521918,27.3362625 L217.951714,27.3362625 C218.627633,27.3362625 219.068449,27.2347625 219.277837,27.0390125 C219.483551,26.8432625 219.601102,26.6040125 219.637837,26.3321375 C219.670898,26.0602625 219.685592,25.2591375 219.685592,23.9432625 L219.685592,13.1951375 C219.685592,11.9336375 219.670898,11.1433875 219.637837,10.8135125 C219.601102,10.4836375 219.465184,10.2371375 219.226408,10.0631375 C218.987633,9.8891375 218.56151,9.8057625 217.951714,9.8057625 L217.521918,9.8057625 L217.521918,9.1387625 C218.466,9.0408875 219.663551,8.7980125 221.107224,8.4173875 L221.107224,8.4173875 Z" id="Fill-29" fill="#FFFFFF" sketch:type="MSShapeGroup" mask="url(#mask-4)"></path>
                    <mask id="mask-6" sketch:name="Clip 32" fill="white">
                        <use xlink:href="#path-5"></use>
                    </mask>
                    <g id="Clip-32"></g>
                    <path d="M238.929796,10.84505 C239.502857,10.03305 240.149388,9.427675 240.858367,9.021675 C241.574694,8.6193 242.357143,8.4163 243.205714,8.4163 C244.17551,8.4163 244.976327,8.6193 245.608163,9.021675 C246.247347,9.427675 246.658776,9.9243 246.849796,10.5188 C247.04449,11.109675 247.136327,12.0703 247.136327,13.400675 L247.136327,16.663175 C247.136327,18.047925 247.165714,18.89255 247.217143,19.193425 C247.272245,19.490675 247.426531,19.708175 247.683673,19.845925 C247.940816,19.983675 248.422041,20.056175 249.116327,20.056175 L249.116327,20.723175 L243.047755,20.723175 L243.047755,20.056175 L243.319592,20.056175 C244.021224,20.056175 244.473061,19.9583 244.675102,19.751675 C244.88449,19.5523 245.002041,19.31305 245.035102,19.03755 C245.071837,18.765675 245.086531,17.975425 245.086531,16.663175 L245.086531,13.110675 C245.086531,12.1283 245.027755,11.399675 244.913878,10.928425 C244.8,10.457175 244.528163,10.065675 244.102041,9.761175 C243.679592,9.449425 243.143265,9.29355 242.504082,9.29355 C241.758367,9.29355 241.089796,9.514675 240.494694,9.9533 C239.903265,10.391925 239.381633,11.051675 238.929796,11.928925 L238.929796,16.663175 C238.929796,17.99355 238.951837,18.809175 238.995918,19.1173 C239.036327,19.425425 239.183265,19.66105 239.433061,19.82055 C239.682857,19.98005 240.134694,20.056175 240.795918,20.056175 L240.795918,20.723175 L234.826531,20.723175 L234.826531,20.056175 L235.127755,20.056175 C235.814694,20.056175 236.262857,19.9583 236.468571,19.758925 C236.677959,19.563175 236.79551,19.32755 236.828571,19.055675 C236.865306,18.77655 236.876327,17.982675 236.876327,16.663175 L236.876327,4.8783 C236.876327,3.68205 236.766122,2.92805 236.542041,2.612675 C236.317959,2.293675 235.781633,2.134175 234.925714,2.134175 L234.925714,1.4708 C236.409796,1.4708 237.644082,1.264175 238.628571,0.8618 L238.929796,0.8618 L238.929796,10.84505 Z" id="Fill-31" fill="#FFFFFF" sketch:type="MSShapeGroup" mask="url(#mask-6)"></path>
                    <path d="M258.721347,18.484375 L261.447061,11.91225 C261.843796,10.948 262.034816,10.4115 262.034816,10.306375 C262.034816,9.82425 261.505837,9.57775 260.444204,9.556 L260.444204,8.892625 L264.576857,8.892625 L264.576857,9.556 C263.937673,9.585 263.467469,9.755375 263.169918,10.07075 C262.876041,10.386125 262.50502,11.07125 262.064204,12.140625 L256.825837,24.868 C256.333592,26.082375 255.889102,26.90525 255.507061,27.34025 C255.12502,27.778875 254.702571,28 254.243388,28 C253.622571,28 253.310327,27.71725 253.310327,27.15175 C253.310327,26.492 253.809918,25.941 254.805429,25.487875 C255.38951,25.226875 255.778898,25.00575 255.973592,24.820875 C256.171959,24.639625 256.36298,24.306125 256.554,23.827625 L257.674408,21.011 L253.255224,11.47725 C252.862163,10.639875 252.535224,10.107 252.278082,9.8895 C252.020939,9.668375 251.583796,9.556 250.959306,9.556 L250.959306,8.892625 L256.351959,8.892625 L256.351959,9.556 C255.407878,9.585 254.934,9.784375 254.934,10.1505 C254.934,10.291875 255.121347,10.76675 255.492367,11.567875 L258.721347,18.484375 Z" id="Fill-34" fill="#FFFFFF" sketch:type="MSShapeGroup" mask="url(#mask-6)"></path>
                    <path d="M278.243633,13.0824 C278.243633,14.32215 278.493429,15.23565 279.004041,15.812025 C279.51098,16.3884 280.15751,16.6784 280.939959,16.6784 C281.667306,16.6784 282.291796,16.3884 282.813429,15.819275 C283.335061,15.246525 283.595878,14.24965 283.595878,12.8359 C283.595878,11.411275 283.316694,10.4289 282.762,9.888775 C282.207306,9.352275 281.579143,9.0804 280.884857,9.0804 C280.003224,9.0804 279.342,9.4139 278.904857,10.077275 C278.464041,10.74065 278.243633,11.744775 278.243633,13.0824 M284.701592,9.932275 C285.513429,9.0079 286.336286,8.5439 287.170163,8.5439 C287.629347,8.5439 287.982,8.670775 288.239143,8.9209 C288.488939,9.17465 288.61751,9.446525 288.61751,9.743775 C288.61751,10.37815 288.33098,10.69715 287.757918,10.69715 C287.442,10.69715 287.170163,10.5014 286.938735,10.106275 C286.729347,9.74015 286.508939,9.555275 286.281184,9.555275 C285.913837,9.555275 285.513429,9.809025 285.072612,10.30565 C285.568531,11.099525 285.822,11.9369 285.822,12.8214 C285.822,13.97415 285.406898,14.9964 284.587714,15.8809 C283.761184,16.7799 282.376286,17.2584 280.425673,17.327275 C278.394245,17.392525 277.384041,17.8094 277.384041,18.57065 C277.384041,18.922275 277.611796,19.17965 278.07098,19.321025 C278.519143,19.4769 279.466898,19.589275 280.914245,19.6654 C282.490163,19.74515 283.702408,19.893775 284.558327,20.104025 C285.406898,20.32515 286.08649,20.76015 286.593429,21.416275 C287.100367,22.068775 287.353837,22.84815 287.353837,23.7544 C287.353837,25.026775 286.839551,26.05265 285.807306,26.832025 C284.771388,27.6114 283.283633,27.999275 281.344041,27.999275 C279.562408,27.999275 278.137102,27.6549 277.068122,26.9589 C275.995469,26.266525 275.459143,25.3929 275.459143,24.3344 C275.459143,23.743525 275.609755,23.265025 275.918327,22.888025 C276.223224,22.51465 276.656694,22.32615 277.226082,22.32615 C277.376694,22.32615 277.516286,22.351525 277.641184,22.39865 C277.046082,23.05115 276.752204,23.743525 276.752204,24.4794 C276.752204,25.324025 277.145265,26.02365 277.935061,26.578275 C278.724857,27.1329 279.900367,27.4084 281.472612,27.4084 C282.868531,27.4084 283.955878,27.129275 284.738327,26.563775 C285.513429,25.998275 285.90649,25.280525 285.90649,24.403275 C285.90649,23.439025 285.553837,22.76115 284.859551,22.36965 C284.157918,21.981775 282.912612,21.7534 281.127306,21.677275 C279.070163,21.590275 277.73302,21.329275 277.123224,20.908775 C276.509755,20.495525 276.204857,19.959025 276.204857,19.306525 C276.204857,18.045025 277.082816,17.25115 278.831388,16.9249 C277.920367,16.38115 277.240776,15.7649 276.781592,15.072525 C276.322408,14.38015 276.09098,13.608025 276.09098,12.7489 C276.09098,11.5454 276.561184,10.52315 277.505265,9.68215 C278.445673,8.837525 279.562408,8.417025 280.855469,8.417025 C282.453429,8.417025 283.731796,8.9209 284.701592,9.932275" id="Fill-36" fill="#FFFFFF" sketch:type="MSShapeGroup" mask="url(#mask-6)"></path>
                    <path d="M294.64898,11.4326625 C294.972245,10.5771625 295.501224,9.8594125 296.235918,9.2794125 C296.966939,8.7066625 297.679592,8.4166625 298.381224,8.4166625 C299.009388,8.4166625 299.505306,8.6160375 299.872653,9.0075375 C300.236327,9.3990375 300.416327,9.8086625 300.416327,10.2219125 C300.416327,10.5010375 300.32449,10.7402875 300.137143,10.9432875 C299.949796,11.1462875 299.722041,11.2477875 299.457551,11.2477875 C298.976327,11.2477875 298.612653,10.8925375 298.366531,10.1784125 C298.193878,9.6962875 297.936735,9.4570375 297.591429,9.4570375 C297.176327,9.4570375 296.687755,9.7361625 296.11102,10.3016625 C295.537959,10.8671625 295.170612,11.4471625 295.00898,12.0561625 C294.843673,12.6651625 294.762857,13.4916625 294.762857,14.5537875 L294.762857,16.6635375 C294.762857,17.9250375 294.777551,18.7189125 294.814286,19.0451625 C294.847347,19.3714125 294.983265,19.6251625 295.222041,19.7991625 C295.460816,19.9695375 295.886939,20.0565375 296.500408,20.0565375 L296.900816,20.0565375 L296.900816,20.7235375 L290.659592,20.7235375 L290.659592,20.0565375 L290.960816,20.0565375 C291.533878,20.0565375 291.945306,19.9767875 292.187755,19.8172875 C292.430204,19.6614125 292.577143,19.4366625 292.624898,19.1502875 C292.672653,18.8602875 292.698367,18.0301625 292.698367,16.6635375 L292.698367,13.3249125 C292.698367,12.0561625 292.68,11.2586625 292.646939,10.9360375 C292.610204,10.6097875 292.474286,10.3632875 292.239184,10.1856625 C291.996735,10.0080375 291.570612,9.9174125 290.960816,9.9174125 L290.659592,9.9174125 L290.659592,9.2649125 C291.555918,9.1597875 292.735102,8.8770375 294.189796,8.4166625 C294.465306,9.1742875 294.619592,10.1820375 294.64898,11.4326625" id="Fill-38" fill="#FFFFFF" sketch:type="MSShapeGroup" mask="url(#mask-6)"></path>
                    <path d="M305.299837,14.859375 C305.299837,16.954625 305.637796,18.426375 306.317388,19.271 C306.99698,20.112 307.948408,20.5325 309.175347,20.5325 C310.428,20.5325 311.383102,20.112 312.051673,19.271 C312.716571,18.426375 313.047184,16.954625 313.047184,14.859375 C313.047184,12.778625 312.720245,11.296 312.05902,10.407875 C311.397796,9.51975 310.435347,9.081125 309.175347,9.081125 C307.91902,9.081125 306.960245,9.51975 306.295347,10.40425 C305.630449,11.285125 305.299837,12.771375 305.299837,14.859375 M302.919429,14.78325 C302.919429,12.974375 303.521878,11.46275 304.726776,10.24475 C305.931673,9.02675 307.412082,8.41775 309.175347,8.41775 C310.942286,8.41775 312.430041,9.02675 313.638612,10.252 C314.84351,11.473625 315.445959,12.981625 315.445959,14.78325 C315.445959,16.777 314.83249,18.346625 313.609224,19.484875 C312.382286,20.630375 310.901878,21.195875 309.175347,21.195875 C307.441469,21.195875 305.968408,20.6195 304.748816,19.4595 C303.529224,18.2995 302.919429,16.744375 302.919429,14.78325" id="Fill-40" fill="#FFFFFF" sketch:type="MSShapeGroup" mask="url(#mask-6)"></path>
                    <path d="M330.640898,8.8908125 L330.640898,16.6519375 C330.640898,17.9388125 330.662939,18.7471875 330.699673,19.0770625 C330.736408,19.4033125 330.876,19.6461875 331.122122,19.8129375 C331.364571,19.9760625 331.801714,20.0558125 332.433551,20.0558125 L332.433551,20.7228125 C330.982531,20.7445625 329.920898,20.8968125 329.248653,21.1831875 L329.076,21.1831875 C328.771102,20.6539375 328.609469,19.7368125 328.587429,18.4426875 C328.00702,19.3561875 327.342122,20.0413125 326.585388,20.5053125 C325.836,20.9693125 325.009469,21.1976875 324.098449,21.1976875 C323.316,21.1976875 322.618041,21.0200625 322.015592,20.6575625 C321.413143,20.2950625 321.001714,19.8528125 320.773959,19.3344375 C320.553551,18.8160625 320.439673,18.0294375 320.439673,16.9818125 L320.439673,12.9508125 C320.439673,11.5841875 320.417633,10.7504375 320.366204,10.4459375 C320.318449,10.1450625 320.167837,9.9166875 319.914367,9.7753125 C319.664571,9.6266875 319.198041,9.5578125 318.514776,9.5578125 L318.514776,8.8908125 L322.504163,8.8908125 L322.504163,17.0978125 C322.504163,17.9025625 322.555592,18.4898125 322.647429,18.8595625 C322.746612,19.2256875 322.989061,19.5446875 323.378449,19.8201875 C323.775184,20.0920625 324.22702,20.2334375 324.74498,20.2334375 C325.483347,20.2334375 326.18498,19.9869375 326.853551,19.5011875 C327.522122,19.0154375 327.977633,18.4970625 328.223755,17.9533125 C328.466204,17.4131875 328.587429,16.6374375 328.587429,15.6224375 L328.587429,12.9508125 C328.587429,11.6603125 328.576408,10.8773125 328.54702,10.5981875 C328.517633,10.3190625 328.396408,10.0725625 328.179673,9.8695625 C327.962939,9.6629375 327.518449,9.5578125 326.838857,9.5578125 L326.537633,9.5578125 L326.537633,8.8908125 L330.640898,8.8908125 Z" id="Fill-42" fill="#FFFFFF" sketch:type="MSShapeGroup" mask="url(#mask-6)"></path>
                    <path d="M338.794898,18.4985125 C339.312857,19.1328875 339.860204,19.6113875 340.436939,19.9340125 C341.017347,20.2566375 341.627143,20.4161375 342.266327,20.4161375 C343.35,20.4161375 344.290408,19.9485125 345.094898,19.0168875 C345.899388,18.0852625 346.299796,16.5953875 346.299796,14.5545125 C346.299796,12.7855125 345.910408,11.4623875 345.13898,10.5815125 C344.363878,9.7042625 343.441837,9.2656375 342.369184,9.2656375 C341.707959,9.2656375 341.083469,9.4360125 340.488367,9.7767625 C339.896939,10.1102625 339.331224,10.6177625 338.794898,11.3065125 L338.794898,18.4985125 Z M338.163061,8.4173875 L338.552449,8.4173875 C338.717755,8.9538875 338.794898,9.6063875 338.794898,10.3640125 C339.408367,9.7115125 340.065918,9.2221375 340.767551,8.8995125 C341.472857,8.5805125 342.218571,8.4173875 343.00102,8.4173875 C344.628367,8.4173875 345.980204,8.9901375 347.060204,10.1428875 C348.143878,11.2920125 348.680204,12.8145125 348.680204,14.6958875 C348.680204,16.5482625 348.140204,18.0961375 347.052857,19.3322625 C345.969184,20.5756375 344.540204,21.1955125 342.769592,21.1955125 C342.045918,21.1955125 341.347959,21.0505125 340.683061,20.7568875 C340.018163,20.4668875 339.39,20.0282625 338.794898,19.4518875 L338.794898,23.9432625 C338.794898,25.3098875 338.824286,26.1436375 338.872041,26.4408875 C338.927143,26.7381375 339.077755,26.9628875 339.327551,27.1151375 C339.577347,27.2637625 340.040204,27.3362625 340.716122,27.3362625 L340.716122,27.9996375 L334.577755,27.9996375 L334.577755,27.3362625 L335.007551,27.3362625 C335.687143,27.3362625 336.127959,27.2347625 336.333673,27.0390125 C336.543061,26.8432625 336.660612,26.6040125 336.693673,26.3321375 C336.730408,26.0602625 336.741429,25.2591375 336.741429,23.9432625 L336.741429,13.1951375 C336.741429,11.9336375 336.730408,11.1433875 336.693673,10.8135125 C336.660612,10.4836375 336.524694,10.2371375 336.282245,10.0631375 C336.047143,9.8891375 335.62102,9.8057625 335.007551,9.8057625 L334.577755,9.8057625 L334.577755,9.1387625 C335.521837,9.0408875 336.723061,8.7980125 338.163061,8.4173875 L338.163061,8.4173875 Z" id="Fill-44" fill="#FFFFFF" sketch:type="MSShapeGroup" mask="url(#mask-6)"></path>
                    <mask id="mask-8" sketch:name="Clip 47" fill="white">
                        <use xlink:href="#path-7"></use>
                    </mask>
                    <g id="Clip-47"></g>
                    <path d="M353.305837,19.638575 C353.305837,19.21445 353.456449,18.85195 353.757673,18.54745 C354.058898,18.24295 354.422571,18.094325 354.841347,18.094325 C355.271143,18.094325 355.63849,18.24295 355.939714,18.54745 C356.240939,18.85195 356.391551,19.21445 356.391551,19.638575 C356.391551,20.06995 356.240939,20.4397 355.932367,20.7442 C355.627469,21.0487 355.263796,21.197325 354.841347,21.197325 C354.411551,21.197325 354.047878,21.04145 353.750327,20.7297 C353.456449,20.41795 353.305837,20.051825 353.305837,19.638575" id="Fill-46" fill="#FFFFFF" sketch:type="MSShapeGroup" mask="url(#mask-8)"></path>
                </g>
            </g>
        </g>
    </g>
</svg>