<?xml version="1.0" encoding="UTF-8" standalone="no"?>
<svg width="42px" height="45px" viewBox="0 0 42 45" version="1.1" xmlns="http://www.w3.org/2000/svg" xmlns:xlink="http://www.w3.org/1999/xlink" xmlns:sketch="http://www.bohemiancoding.com/sketch/ns">
    <!-- Generator: Sketch 3.4.4 (17249) - http://www.bohemiancoding.com/sketch -->
    <title>logo_header</title>
    <desc>Created with Sketch.</desc>
    <defs></defs>
    <g id="top" stroke="none" stroke-width="1" fill="none" fill-rule="evenodd" sketch:type="MSPage">
        <g id="White-top" sketch:type="MSArtboardGroup" transform="translate(-52.000000, -43.000000)">
            <g id="logo_header" sketch:type="MSLayerGroup" transform="translate(52.000000, 43.000000)">
                <g id="Group-27" transform="translate(0.000000, 3.260870)" fill-opacity="0.265341938" fill="#F3F5F6" sketch:type="MSShapeGroup">
                    <path d="M1.4203875,20.3828478 L1.46041875,20.619587 L36.5081062,20.619587 L36.468075,20.3828478 L1.4203875,20.3828478 Z M0.063,0.195652174 L2.6525625,15.6215217 L2.59153125,15.2576087 L4.053,15.2576087 L1.525125,0.195652174 L0.063,0.195652174 Z M15.5155219,15.2575435 L15.7557094,16.688413 L16.9881469,16.688413 L16.7473031,15.2575435 L15.5155219,15.2575435 Z M4.05345937,15.2575435 L2.59133437,15.2575435 L2.65236562,15.6214565 L2.83217812,16.688413 L15.3888656,16.688413 L15.1486781,15.2575435 L4.05345937,15.2575435 Z M12.6202781,0.195652174 L15.1488094,15.2576087 L15.3889969,16.6884783 L15.5576531,17.6915217 L15.9244969,17.6915217 L15.7558406,16.6884783 L15.5156531,15.2576087 L12.9871219,0.195652174 L12.6202781,0.195652174 Z M30.3868687,2.97782609 L32.8569937,17.6915217 L34.3191187,17.6915217 L31.8489937,2.97782609 L30.3868687,2.97782609 Z M19.0569094,1.54623913 L19.2977531,2.97776087 L30.3870656,2.97776087 L31.8491906,2.97776087 L31.6090031,1.54623913 L19.0569094,1.54623913 Z M17.4523781,1.54623913 L17.6925656,2.97776087 L18.9295969,2.97776087 L18.6894094,1.54623913 L17.4523781,1.54623913 Z M18.4633313,0.195652174 L18.6897375,1.54630435 L18.929925,2.97782609 L21.40005,17.6915217 L21.7682063,17.6915217 L19.2980813,2.97782609 L19.0572375,1.54630435 L18.8308313,0.195652174 L18.4633313,0.195652174 Z M3.95521875,23.6105217 L6.42534375,38.3242174 L7.88746875,38.3242174 L5.41734375,23.6105217 L3.95521875,23.6105217 Z M6.42534375,38.3242174 L6.5454375,39.0363913 L6.42534375,38.3242174 Z M19.3492687,38.3243478 L19.5888,39.7493478 L20.8212375,39.7493478 L20.58105,38.3243478 L19.3492687,38.3243478 Z M19.2215188,39.7493478 L6.66526875,39.7493478 L6.545175,39.0365217 L6.42508125,38.3243478 L7.8878625,38.3243478 L18.982425,38.3243478 L19.0622651,38.7993261 L18.9826219,38.3242174 L16.5124969,23.6105217 L16.8793406,23.6105217 L19.3494656,38.3242174 L19.5889969,39.7492174 L19.8167156,41.1063913 L19.4498719,41.1063913 L19.2215188,39.7493478 Z M34.2265219,26.0446304 L36.7543969,41.106587 L38.2112719,41.106587 L35.6827406,26.0446304 L34.2265219,26.0446304 Z M22.8906562,24.6136304 L23.1308437,26.0445 L34.2267187,26.0445 L35.6829375,26.0445 L35.44275,24.6136304 L22.8906562,24.6136304 Z M21.2867812,24.6136304 L21.5269687,26.0445 L22.764,26.0445 L22.5238125,24.6136304 L21.2867812,24.6136304 Z M22.3561406,23.6105217 L22.5241406,24.6135652 L22.7643281,26.0444348 L25.2935156,41.1063913 L25.6597031,41.1063913 L23.1311719,26.0444348 L22.8903281,24.6135652 L22.7229844,23.6105217 L22.3561406,23.6105217 Z" id="Fill-1"></path>
                </g>
                <g id="Group-54" transform="translate(3.281250, 0.000000)" fill="#FFFFFF" sketch:type="MSShapeGroup">
                    <path d="M1.416975,20.3861087 L1.45635,20.6228478 L36.5046938,20.6228478 L36.4653188,20.3861087 L1.416975,20.3861087 Z" id="Fill-28"></path>
                    <path d="M0.05971875,0.198913043 L2.58825,15.2602174 L4.050375,15.2602174 L1.5211875,0.198913043 L0.05971875,0.198913043 Z M2.58825,15.2602174 L2.6499375,15.6254348 L2.58825,15.2602174 Z M15.5122406,15.2602174 L15.7524281,16.6923913 L16.9901156,16.6923913 L16.7492719,15.2602174 L15.5122406,15.2602174 Z M4.05083437,15.2602174 L2.58805312,15.2602174 L2.64974062,15.6254348 L2.82889687,16.6923913 L15.3855844,16.6923913 L15.1453969,15.2602174 L4.05083437,15.2602174 Z M12.6169969,0.198913043 L15.1455281,15.2602174 L15.3857156,16.6923913 L15.5543719,17.6947826 L15.9205594,17.6947826 L15.7525594,16.6923913 L15.5123719,15.2602174 L12.9838406,0.198913043 L12.6169969,0.198913043 Z" id="Fill-30"></path>
                    <path d="M30.3889031,2.98167391 L32.8590281,17.6947174 L34.3159031,17.6947174 L31.8457781,2.98167391 L30.3889031,2.98167391 Z M19.0542188,1.55008696 L19.29375,2.9816087 L30.3889688,2.9816087 L31.8458438,2.9816087 L31.6056563,1.55008696 L19.0542188,1.55008696 Z M18.9273437,2.9816087 L17.6892188,2.9816087 L17.4490313,1.55008696 L18.6865,1.55008696 L18.4594594,0.198913043 L18.8276156,0.198913043 L19.0540219,1.55021739 L19.2942094,2.98173913 L21.7636781,17.6947826 L21.3974906,17.6947826 L18.9273656,2.98173913 Z" id="Fill-36"></path>
                    <path d="M3.95252812,23.6137826 L6.42199687,38.3261739 L7.88412187,38.3261739 L5.41399687,23.6137826 L3.95252812,23.6137826 Z M6.42199687,38.3261739 L6.54209062,39.0403043 L6.42199687,38.3261739 Z M19.3465781,38.3264348 L19.5861094,39.7533913 L20.8231406,39.7533913 L20.5836094,38.3264348 L19.3465781,38.3264348 Z M19.2182595,39.7533913 L6.66192188,39.7533913 L6.54182813,39.039913 L6.42173438,38.3264348 L7.88451563,38.3264348 L18.9790781,38.3264348 L19.0908302,38.9921739 L18.9793406,38.3261739 L16.5092156,23.6137826 L16.8767156,23.6137826 L19.3468406,38.3261739 L19.5857156,39.7531304 L19.8134344,41.1096522 L19.4465906,41.1096522 L19.2182595,39.7533913 Z" id="Fill-42"></path>
                    <path d="M34.22265,26.0431957 L36.7511813,41.1097174 L38.21265,41.1097174 L35.6841188,26.0431957 L34.22265,26.0431957 Z M22.8879656,24.6168913 L23.1268406,26.0431957 L34.2227156,26.0431957 L35.6841844,26.0431957 L35.4446531,24.6168913 L22.8879656,24.6168913 Z M22.7604016,26.0431957 L21.5229656,26.0431957 L21.2834344,24.6168913 L22.5204656,24.6168913 L22.6685867,25.4964783 L22.5208594,24.6168261 L22.3528594,23.6137826 L22.7197031,23.6137826 L22.8877031,24.6168261 L23.1272344,26.0431304 L25.6570781,41.1096522 L25.2902344,41.1096522 L22.7604016,26.0431957 Z" id="Fill-48"></path>
                </g>
            </g>
        </g>
    </g>
</svg>