<?xml version="1.0" encoding="UTF-8" standalone="no"?>
<svg width="524px" height="27px" viewBox="0 0 524 27" version="1.1" xmlns="http://www.w3.org/2000/svg" xmlns:xlink="http://www.w3.org/1999/xlink" xmlns:sketch="http://www.bohemiancoding.com/sketch/ns">
    <!-- Generator: Sketch 3.4.4 (17249) - http://www.bohemiancoding.com/sketch -->
    <title>Group</title>
    <desc>Created with Sketch.</desc>
    <defs></defs>
    <g id="about" stroke="none" stroke-width="1" fill="none" fill-rule="evenodd" sketch:type="MSPage">
        <g id="new-about-２" sketch:type="MSArtboardGroup" transform="translate(-458.000000, -1135.000000)" stroke="#50606A">
            <g id="Group" sketch:type="MSLayerGroup" transform="translate(459.000000, 1135.000000)">
                <path d="M1.832,1 L0,4.906 L0,8.275 L3.528,8.275 L3.528,4.906 L1.746,4.906 L3.406,1 L1.832,1 L1.832,1 Z M6.751,1 L4.92,4.906 L4.92,8.275 L8.447,8.275 L8.447,4.906 L6.678,4.906 L8.326,1 L6.751,1 L6.751,1 Z" id="Stroke-51" sketch:type="MSShapeGroup"></path>
                <path d="M12,2 L12,21.397 L24.5,21.397 L24.5,18.675 L15.405,18.675 L15.405,2 L12,2 L12,2 Z" id="Stroke-52" sketch:type="MSShapeGroup"></path>
                <path d="M38.4619,13.8672 C38.4619,11.7512 37.9489,10.0542 36.9239,8.7772 C35.8009,7.3692 34.2709,6.6652 32.3339,6.6652 C30.6009,6.6652 29.1769,7.2352 28.0619,8.3742 C26.7599,9.6922 26.1079,11.5402 26.1079,13.9162 C26.1079,16.0152 26.6089,17.6842 27.6089,18.9212 C28.7489,20.3372 30.4129,21.0452 32.6029,21.0452 C35.5979,21.0452 37.5259,19.7192 38.3889,17.0652 L35.5319,16.2352 C35.0759,17.9772 34.1119,18.8472 32.6389,18.8472 C31.5979,18.8472 30.7789,18.5022 30.1859,17.8102 C29.5339,17.0452 29.2009,15.9472 29.1849,14.5142 L38.4619,14.5142 L38.4619,13.8672 L38.4619,13.8672 Z M29.2329,12.4392 C29.3069,11.3972 29.5789,10.5632 30.0509,9.9362 C30.6049,9.2042 31.3819,8.8382 32.3829,8.8382 C34.2309,8.8382 35.2319,10.0382 35.3859,12.4392 L29.2329,12.4392 L29.2329,12.4392 Z" id="Stroke-53" sketch:type="MSShapeGroup"></path>
                <path d="M42.2832,3.1982 L42.2832,6.9702 L40.2322,6.9702 L40.2322,9.2652 L42.2832,9.2652 L42.2832,17.3702 C42.2832,18.5422 42.5552,19.4262 43.1002,20.0192 C43.7112,20.6862 44.7122,21.0202 46.1032,21.0202 C47.0482,21.0202 47.8652,20.9672 48.5562,20.8622 L48.6792,18.6152 C48.2232,18.7212 47.6902,18.7742 47.0802,18.7742 C45.9492,18.7742 45.3832,18.1152 45.3832,16.7972 L45.3832,9.2652 L48.4592,9.2652 L48.4592,6.9702 L45.3832,6.9702 L45.3832,2.4902 L42.2832,3.1982 L42.2832,3.1982 Z" id="Stroke-55" sketch:type="MSShapeGroup"></path>
                <path d="M50.5098,1.2939 L51.1808,8.5329 L52.9878,8.5329 L53.6838,1.2939 L50.5098,1.2939 L50.5098,1.2939 Z" id="Stroke-57" sketch:type="MSShapeGroup"></path>
                <path d="M61.6309,6.665 C60.1169,6.665 58.9009,6.995 57.9809,7.654 C56.9799,8.37 56.4789,9.343 56.4789,10.571 C56.4789,11.645 56.7349,12.484 57.2479,13.086 C57.8339,13.769 58.9199,14.323 60.5079,14.746 L61.6539,15.063 C62.6959,15.365 63.3839,15.625 63.7179,15.845 C64.1089,16.113 64.3039,16.54 64.3039,17.126 C64.3039,18.307 63.4699,18.896 61.8009,18.896 C60.3279,18.896 59.3719,18.127 58.9329,16.589 L56.0029,17.615 C56.8329,19.902 58.7409,21.045 61.7289,21.045 C63.4119,21.045 64.7389,20.695 65.7069,19.995 C66.7579,19.247 67.2819,18.188 67.2819,16.821 C67.2819,15.78 67.0059,14.954 66.4519,14.343 C65.8249,13.652 64.6819,13.086 63.0219,12.646 L61.8749,12.341 C60.9549,12.097 60.3239,11.845 59.9829,11.584 C59.6159,11.3 59.4339,10.869 59.4339,10.29 C59.4339,9.892 59.5999,9.562 59.9339,9.302 C60.3319,8.977 60.8819,8.813 61.5819,8.813 C62.8669,8.813 63.6819,9.55 64.0239,11.023 L67.0019,10.168 C66.2119,7.833 64.4219,6.665 61.6309,6.665 L61.6309,6.665 Z" id="Stroke-59" sketch:type="MSShapeGroup"></path>
                <path d="M77.5605,6.9702 L77.5605,20.6912 L80.6615,20.6912 L80.6615,11.6942 C80.9865,11.0432 81.4015,10.5062 81.9065,10.0832 C82.4845,9.6032 83.0615,9.3632 83.6395,9.3632 C84.7705,9.3632 85.3355,10.1322 85.3355,11.6702 L85.3355,20.6912 L88.4375,20.6912 L88.4375,11.6942 C88.7385,11.0522 89.1285,10.5182 89.6095,10.0952 C90.1695,9.6072 90.7365,9.3632 91.3055,9.3632 C92.5755,9.3632 93.2095,10.1322 93.2095,11.6702 L93.2095,20.6912 L96.3595,20.6912 L96.3595,10.7912 C96.3595,9.5782 96.0545,8.6102 95.4435,7.8862 C94.7685,7.0722 93.8245,6.6652 92.6115,6.6652 C90.8945,6.6652 89.4465,7.5602 88.2655,9.3502 C88.0955,8.5862 87.7535,7.9672 87.2405,7.4952 C86.6225,6.9422 85.8365,6.6652 84.8845,6.6652 C83.1755,6.6652 81.7355,7.5682 80.5635,9.3752 L80.5635,6.9702 L77.5605,6.9702 L77.5605,6.9702 Z" id="Stroke-61" sketch:type="MSShapeGroup"></path>
                <path d="M102.8779,11.2183 C103.0079,10.5023 103.2889,9.9323 103.7209,9.5093 C104.1919,9.0453 104.7859,8.8133 105.5019,8.8133 C106.2829,8.8133 106.8609,8.9763 107.2359,9.3013 C107.6669,9.6843 107.8829,10.3313 107.8829,11.2423 L107.8829,12.0243 C106.3769,12.0723 105.0709,12.2033 103.9649,12.4143 C100.9779,12.9923 99.4839,14.5023 99.4839,16.9433 C99.4839,18.0993 99.8259,19.0433 100.5099,19.7753 C101.2829,20.6053 102.3489,21.0203 103.7079,21.0203 C105.6049,21.0203 107.0449,20.3123 108.0289,18.8963 C108.0949,19.5803 108.1719,20.1783 108.2619,20.6913 L111.1539,20.6913 C111.0079,19.3163 110.9349,17.9653 110.9349,16.6383 L110.9349,11.1943 C110.9349,8.1583 109.1599,6.6403 105.6119,6.6403 C102.5359,6.6403 100.6449,7.9023 99.9359,10.4253 L102.8779,11.2183 L102.8779,11.2183 Z M107.8829,16.5163 C107.0849,18.0223 106.0199,18.7743 104.6849,18.7743 C103.2199,18.7743 102.4869,18.0833 102.4869,16.6993 C102.4869,15.5033 103.2359,14.7263 104.7329,14.3673 C105.7829,14.1233 106.8329,13.9893 107.8829,13.9653 L107.8829,16.5163 L107.8829,16.5163 Z" id="Stroke-63" sketch:type="MSShapeGroup"></path>
                <path d="M122.9336,6.9702 L117.9906,12.9642 L117.9906,0.9402 L114.8896,0.9402 L114.8896,20.6912 L117.9906,20.6912 L117.9906,16.2962 L119.8706,14.2212 L123.2636,20.6912 L126.7186,20.6912 L121.8846,12.0972 L126.4616,6.9702 L122.9336,6.9702 L122.9336,6.9702 Z" id="Stroke-65" sketch:type="MSShapeGroup"></path>
                <path d="M140.6592,13.8672 C140.6592,11.7512 140.1462,10.0542 139.1212,8.7772 C137.9982,7.3692 136.4682,6.6652 134.5312,6.6652 C132.7982,6.6652 131.3742,7.2352 130.2592,8.3742 C128.9572,9.6922 128.3052,11.5402 128.3052,13.9162 C128.3052,16.0152 128.8062,17.6842 129.8062,18.9212 C130.9462,20.3372 132.6102,21.0452 134.8002,21.0452 C137.7952,21.0452 139.7232,19.7192 140.5862,17.0652 L137.7292,16.2352 C137.2732,17.9772 136.3092,18.8472 134.8362,18.8472 C133.7952,18.8472 132.9762,18.5022 132.3832,17.8102 C131.7312,17.0452 131.3982,15.9472 131.3822,14.5142 L140.6592,14.5142 L140.6592,13.8672 L140.6592,13.8672 Z M131.4302,12.4392 C131.5042,11.3972 131.7762,10.5632 132.2482,9.9362 C132.8022,9.2042 133.5792,8.8382 134.5802,8.8382 C136.4282,8.8382 137.4292,10.0382 137.5832,12.4392 L131.4302,12.4392 L131.4302,12.4392 Z" id="Stroke-67" sketch:type="MSShapeGroup"></path>
                <path d="M155.4902,6.665 C153.9762,6.665 152.7612,6.995 151.8412,7.654 C150.8402,8.37 150.3402,9.343 150.3402,10.571 C150.3402,11.645 150.5952,12.484 151.1082,13.086 C151.6942,13.769 152.7812,14.323 154.3672,14.746 L155.5152,15.063 C156.5562,15.365 157.2442,15.625 157.5782,15.845 C157.9692,16.113 158.1642,16.54 158.1642,17.126 C158.1642,18.307 157.3302,18.896 155.6622,18.896 C154.1882,18.896 153.2322,18.127 152.7932,16.589 L149.8632,17.615 C150.6932,19.902 152.6012,21.045 155.5882,21.045 C157.2732,21.045 158.5992,20.695 159.5682,19.995 C160.6172,19.247 161.1422,18.188 161.1422,16.821 C161.1422,15.78 160.8662,14.954 160.3122,14.343 C159.6852,13.652 158.5432,13.086 156.8832,12.646 L155.7342,12.341 C154.8152,12.097 154.1842,11.845 153.8432,11.584 C153.4762,11.3 153.2932,10.869 153.2932,10.29 C153.2932,9.892 153.4602,9.562 153.7942,9.302 C154.1922,8.977 154.7422,8.813 155.4412,8.813 C156.7272,8.813 157.5412,9.55 157.8832,11.023 L160.8612,10.168 C160.0722,7.833 158.2822,6.665 155.4902,6.665 L155.4902,6.665 Z" id="Stroke-69" sketch:type="MSShapeGroup"></path>
                <path d="M165.4023,8.3618 C164.1093,9.6888 163.4623,11.5318 163.4623,13.8918 C163.4623,15.9508 163.9583,17.6148 164.9513,18.8838 C166.0743,20.3248 167.6443,21.0448 169.6633,21.0448 C171.4213,21.0448 172.8533,20.4798 173.9603,19.3478 C175.2463,18.0298 175.8883,16.1868 175.8883,13.8188 C175.8883,11.7678 175.3883,10.1038 174.3863,8.8258 C173.2563,7.3848 171.6893,6.6648 169.6873,6.6648 C167.9463,6.6648 166.5173,7.2308 165.4023,8.3618 L165.4023,8.3618 Z M172.6663,13.8428 C172.6663,17.1308 171.6653,18.7748 169.6633,18.7748 C167.6773,18.7748 166.6843,17.1308 166.6843,13.8428 C166.6843,10.5708 167.6853,8.9358 169.6873,8.9358 C171.6733,8.9358 172.6663,10.5708 172.6663,13.8428 L172.6663,13.8428 Z" id="Stroke-71" sketch:type="MSShapeGroup"></path>
                <path d="M179.1104,6.9702 L179.1104,20.6912 L182.2114,20.6912 L182.2114,11.6942 C182.5364,11.0432 182.9514,10.5062 183.4564,10.0832 C184.0344,9.6032 184.6114,9.3632 185.1894,9.3632 C186.3204,9.3632 186.8864,10.1322 186.8864,11.6702 L186.8864,20.6912 L189.9864,20.6912 L189.9864,11.6942 C190.2884,11.0522 190.6784,10.5182 191.1584,10.0952 C191.7204,9.6072 192.2864,9.3632 192.8554,9.3632 C194.1254,9.3632 194.7594,10.1322 194.7594,11.6702 L194.7594,20.6912 L197.9094,20.6912 L197.9094,10.7912 C197.9094,9.5782 197.6034,8.6102 196.9944,7.8862 C196.3184,7.0722 195.3744,6.6652 194.1624,6.6652 C192.4444,6.6652 190.9964,7.5602 189.8164,9.3502 C189.6444,8.5862 189.3024,7.9672 188.7914,7.4952 C188.1724,6.9422 187.3864,6.6652 186.4344,6.6652 C184.7254,6.6652 183.2854,7.5682 182.1134,9.3752 L182.1134,6.9702 L179.1104,6.9702 L179.1104,6.9702 Z" id="Stroke-73" sketch:type="MSShapeGroup"></path>
                <path d="M213.4131,13.8672 C213.4131,11.7512 212.9001,10.0542 211.8751,8.7772 C210.7521,7.3692 209.2221,6.6652 207.2851,6.6652 C205.5521,6.6652 204.1281,7.2352 203.0131,8.3742 C201.7111,9.6922 201.0591,11.5402 201.0591,13.9162 C201.0591,16.0152 201.5601,17.6842 202.5601,18.9212 C203.7001,20.3372 205.3641,21.0452 207.5541,21.0452 C210.5491,21.0452 212.4771,19.7192 213.3401,17.0652 L210.4831,16.2352 C210.0271,17.9772 209.0631,18.8472 207.5901,18.8472 C206.5491,18.8472 205.7301,18.5022 205.1371,17.8102 C204.4851,17.0452 204.1521,15.9472 204.1361,14.5142 L213.4131,14.5142 L213.4131,13.8672 L213.4131,13.8672 Z M204.1841,12.4392 C204.2581,11.3972 204.5301,10.5632 205.0021,9.9362 C205.5561,9.2042 206.3331,8.8382 207.3341,8.8382 C209.1821,8.8382 210.1831,10.0382 210.3371,12.4392 L204.1841,12.4392 L204.1841,12.4392 Z" id="Stroke-75" sketch:type="MSShapeGroup"></path>
                <path d="M217.2344,3.1982 L217.2344,6.9702 L215.1834,6.9702 L215.1834,9.2652 L217.2344,9.2652 L217.2344,17.3702 C217.2344,18.5422 217.5064,19.4262 218.0514,20.0192 C218.6624,20.6862 219.6634,21.0202 221.0544,21.0202 C221.9994,21.0202 222.8164,20.9672 223.5074,20.8622 L223.6304,18.6152 C223.1744,18.7212 222.6414,18.7742 222.0314,18.7742 C220.9004,18.7742 220.3344,18.1152 220.3344,16.7972 L220.3344,9.2652 L223.4104,9.2652 L223.4104,6.9702 L220.3344,6.9702 L220.3344,2.4902 L217.2344,3.1982 L217.2344,3.1982 Z" id="Stroke-77" sketch:type="MSShapeGroup"></path>
                <path d="M226.083,0.9399 L226.083,20.6909 L229.232,20.6909 L229.232,11.7429 C229.631,11.0759 230.095,10.5349 230.624,10.1199 C231.242,9.6309 231.845,9.3869 232.431,9.3869 C233.7,9.3869 234.335,10.1559 234.335,11.6939 L234.335,20.6909 L237.558,20.6909 L237.558,10.7909 C237.558,9.5949 237.232,8.6299 236.581,7.8979 C235.865,7.0919 234.885,6.6899 233.639,6.6899 C231.93,6.6899 230.461,7.5559 229.232,9.2899 L229.232,0.9399 L226.083,0.9399 L226.083,0.9399 Z" id="Stroke-79" sketch:type="MSShapeGroup"></path>
                <path d="M241.514,20.691 L244.663,20.691 L244.663,6.97 L241.514,6.97 L241.514,20.691 Z M241.392,4.517 L244.797,4.517 L244.797,1.294 L241.392,1.294 L241.392,4.517 Z" id="Stroke-81" sketch:type="MSShapeGroup"></path>
                <path d="M248.6904,6.9702 L248.6904,20.6912 L251.8394,20.6912 L251.8394,11.6942 C252.2384,11.0272 252.7024,10.4862 253.2314,10.0712 C253.8494,9.5992 254.4524,9.3632 255.0384,9.3632 C256.3074,9.3632 256.9424,10.1322 256.9424,11.6702 L256.9424,20.6912 L260.1654,20.6912 L260.1654,10.7912 C260.1654,9.5872 259.8394,8.6182 259.1884,7.8862 C258.4724,7.0722 257.4924,6.6652 256.2464,6.6652 C255.4324,6.6652 254.6474,6.8812 253.8904,7.3122 C253.0604,7.7922 252.3444,8.4802 251.7424,9.3752 L251.7424,6.9702 L248.6904,6.9702 L248.6904,6.9702 Z" id="Stroke-83" sketch:type="MSShapeGroup"></path>
                <path d="M273.7031,5.5176 C273.0451,5.8516 272.4741,6.4536 271.9941,7.3246 C271.1811,6.8846 270.2081,6.6646 269.0771,6.6646 C267.5961,6.6646 266.3711,7.0186 265.4021,7.7266 C264.2641,8.5406 263.6931,9.6556 263.6931,11.0716 C263.6931,12.6586 264.3451,13.8676 265.6461,14.6976 C264.2471,15.5766 263.5471,16.5246 263.5471,17.5416 C263.5471,18.5756 264.1901,19.2346 265.4761,19.5186 C263.7911,20.1296 262.9491,21.0206 262.9491,22.1926 C262.9491,23.1366 263.4131,23.9016 264.3411,24.4876 C265.4471,25.1786 267.0431,25.5246 269.1261,25.5246 C271.1521,25.5246 272.7801,25.1786 274.0091,24.4876 C275.3511,23.7226 276.0231,22.6766 276.0231,21.3506 C276.0231,20.3736 275.7301,19.6126 275.1441,19.0676 C274.4031,18.4006 273.1131,17.9766 271.2741,17.7976 L268.1741,17.5416 C267.4581,17.4766 266.9611,17.3746 266.6831,17.2366 C266.4081,17.0986 266.2691,16.8666 266.2691,16.5406 C266.2691,16.0766 266.6031,15.6786 267.2701,15.3446 C267.8241,15.4986 268.4181,15.5766 269.0531,15.5766 C270.5501,15.5766 271.7791,15.2266 272.7391,14.5266 C273.8791,13.7046 274.4481,12.5446 274.4481,11.0476 C274.4481,9.9896 274.0741,9.0746 273.3251,8.3006 C273.6101,8.0486 273.8941,7.8736 274.1801,7.7756 C274.5461,7.6536 275.0791,7.5926 275.7791,7.5926 L275.9741,5.0656 C275.0381,5.0656 274.2811,5.2166 273.7031,5.5176 L273.7031,5.5176 Z M270.7501,9.0946 C271.2951,9.5666 271.5671,10.2176 271.5671,11.0476 C271.5671,11.8366 271.3591,12.4716 270.9451,12.9516 C270.4891,13.4646 269.8621,13.7206 269.0641,13.7206 C268.3731,13.7206 267.8071,13.5216 267.3681,13.1226 C266.8391,12.6426 266.5741,11.9426 266.5741,11.0226 C266.5741,10.3146 266.7821,9.7336 267.1971,9.2776 C267.6691,8.7726 268.2921,8.5206 269.0641,8.5206 C269.7401,8.5206 270.3021,8.7116 270.7501,9.0946 L270.7501,9.0946 Z M270.7731,20.2516 C271.7101,20.3496 272.3651,20.5076 272.7391,20.7276 C273.1131,20.9556 273.3011,21.3296 273.3011,21.8506 C273.3011,22.3306 273.0121,22.7336 272.4331,23.0596 C271.7101,23.4656 270.6641,23.6696 269.2971,23.6696 C268.2301,23.6696 267.3641,23.5226 266.6971,23.2296 C265.9161,22.8886 265.5251,22.3996 265.5251,21.7656 C265.5251,20.9106 266.1401,20.2886 267.3681,19.8976 L270.7731,20.2516 L270.7731,20.2516 Z" id="Stroke-84" sketch:type="MSShapeGroup"></path>
                <path d="M301.1445,6.9702 L299.8265,13.0122 C299.6795,13.6562 299.5125,14.4532 299.3255,15.4052 C299.0485,16.8212 298.8735,17.7002 298.8005,18.0422 L298.4955,18.0422 C298.2755,16.6672 297.9505,15.0022 297.5185,13.0492 L296.2245,6.9702 L292.5255,6.9702 L291.1695,13.0492 C291.0405,13.6032 290.8735,14.3842 290.6695,15.3932 C290.4105,16.7112 290.2265,17.5952 290.1215,18.0422 L289.8525,18.0422 C289.7545,17.5782 289.6005,16.8172 289.3885,15.7592 C289.1445,14.5382 288.9565,13.6152 288.8275,12.9882 L287.5215,6.9702 L284.2985,6.9702 L287.9725,20.6912 L291.6235,20.6912 L293.0755,14.5632 C293.3685,13.2532 293.7025,11.5892 294.0765,9.5702 L294.3695,9.5702 C294.9555,12.5732 295.2805,14.2292 295.3455,14.5382 L296.7245,20.6912 L300.3735,20.6912 L304.1465,6.9702 L301.1445,6.9702 L301.1445,6.9702 Z" id="Stroke-85" sketch:type="MSShapeGroup"></path>
                <path d="M306.674,20.691 L309.823,20.691 L309.823,6.97 L306.674,6.97 L306.674,20.691 Z M306.552,4.517 L309.957,4.517 L309.957,1.294 L306.552,1.294 L306.552,4.517 Z" id="Stroke-86" sketch:type="MSShapeGroup"></path>
                <path d="M314.5,3.1982 L314.5,6.9702 L312.449,6.9702 L312.449,9.2652 L314.5,9.2652 L314.5,17.3702 C314.5,18.5422 314.771,19.4262 315.317,20.0192 C315.928,20.6862 316.929,21.0202 318.32,21.0202 C319.265,21.0202 320.082,20.9672 320.773,20.8622 L320.896,18.6152 C320.439,18.7212 319.907,18.7742 319.297,18.7742 C318.166,18.7742 317.6,18.1152 317.6,16.7972 L317.6,9.2652 L320.676,9.2652 L320.676,6.9702 L317.6,6.9702 L317.6,2.4902 L314.5,3.1982 L314.5,3.1982 Z" id="Stroke-87" sketch:type="MSShapeGroup"></path>
                <path d="M323.3486,0.9399 L323.3486,20.6909 L326.4976,20.6909 L326.4976,11.7429 C326.8966,11.0759 327.3606,10.5349 327.8896,10.1199 C328.5076,9.6309 329.1106,9.3869 329.6966,9.3869 C330.9656,9.3869 331.6006,10.1559 331.6006,11.6939 L331.6006,20.6909 L334.8236,20.6909 L334.8236,10.7909 C334.8236,9.5949 334.4976,8.6299 333.8466,7.8979 C333.1306,7.0919 332.1506,6.6899 330.9046,6.6899 C329.1956,6.6899 327.7266,7.5559 326.4976,9.2899 L326.4976,0.9399 L323.3486,0.9399 L323.3486,0.9399 Z" id="Stroke-88" sketch:type="MSShapeGroup"></path>
                <path d="M348.4717,11.2183 C348.6017,10.5023 348.8827,9.9323 349.3147,9.5093 C349.7847,9.0453 350.3797,8.8133 351.0957,8.8133 C351.8767,8.8133 352.4547,8.9763 352.8297,9.3013 C353.2607,9.6843 353.4767,10.3313 353.4767,11.2423 L353.4767,12.0243 C351.9707,12.0723 350.6647,12.2033 349.5587,12.4143 C346.5717,12.9923 345.0777,14.5023 345.0777,16.9433 C345.0777,18.0993 345.4197,19.0433 346.1037,19.7753 C346.8767,20.6053 347.9427,21.0203 349.3017,21.0203 C351.1987,21.0203 352.6387,20.3123 353.6227,18.8963 C353.6887,19.5803 353.7657,20.1783 353.8557,20.6913 L356.7477,20.6913 C356.6017,19.3163 356.5287,17.9653 356.5287,16.6383 L356.5287,11.1943 C356.5287,8.1583 354.7537,6.6403 351.2057,6.6403 C348.1297,6.6403 346.2387,7.9023 345.5297,10.4253 L348.4717,11.2183 L348.4717,11.2183 Z M353.4767,16.5163 C352.6787,18.0223 351.6137,18.7743 350.2787,18.7743 C348.8137,18.7743 348.0807,18.0833 348.0807,16.6993 C348.0807,15.5033 348.8297,14.7263 350.3257,14.3673 C351.3767,14.1233 352.4267,13.9893 353.4767,13.9653 L353.4767,16.5163 L353.4767,16.5163 Z" id="Stroke-89" sketch:type="MSShapeGroup"></path>
                <path d="M367.6123,6.9702 L367.6123,25.5122 L370.7373,25.5122 L370.7373,18.7622 C371.5673,20.2682 372.7673,21.0202 374.3383,21.0202 C375.7623,21.0202 376.9593,20.4752 377.9273,19.3852 C379.1153,18.0502 379.7093,16.1702 379.7093,13.7452 C379.7093,11.6212 379.2743,9.9322 378.4033,8.6792 C377.4593,7.3362 376.1533,6.6652 374.4843,6.6652 C372.8733,6.6652 371.5913,7.4422 370.6393,8.9962 L370.6393,6.9702 L367.6123,6.9702 L367.6123,6.9702 Z M373.6913,9.1182 C374.4653,9.1182 375.0913,9.4402 375.5713,10.0832 C376.1813,10.8972 376.4863,12.1422 376.4863,13.8182 C376.4863,15.3002 376.2303,16.4552 375.7163,17.2852 C375.1883,18.1562 374.4523,18.5912 373.5083,18.5912 C372.3203,18.5912 371.3963,17.8262 370.7373,16.2962 L370.7373,11.4382 C371.4133,9.8922 372.3973,9.1182 373.6913,9.1182 L373.6913,9.1182 Z" id="Stroke-90" sketch:type="MSShapeGroup"></path>
                <path d="M382.9316,0.9399 L382.9316,20.6909 L386.0796,20.6909 L386.0796,11.7429 C386.4796,11.0759 386.9436,10.5349 387.4726,10.1199 C388.0906,9.6309 388.6936,9.3869 389.2796,9.3869 C390.5486,9.3869 391.1836,10.1559 391.1836,11.6939 L391.1836,20.6909 L394.4066,20.6909 L394.4066,10.7909 C394.4066,9.5949 394.0796,8.6299 393.4296,7.8979 C392.7136,7.0919 391.7326,6.6899 390.4886,6.6899 C388.7796,6.6899 387.3096,7.5559 386.0796,9.2899 L386.0796,0.9399 L382.9316,0.9399 L382.9316,0.9399 Z" id="Stroke-91" sketch:type="MSShapeGroup"></path>
                <path d="M399.4961,8.3618 C398.2031,9.6888 397.5561,11.5318 397.5561,13.8918 C397.5561,15.9508 398.0521,17.6148 399.0451,18.8838 C400.1681,20.3248 401.7381,21.0448 403.7571,21.0448 C405.5151,21.0448 406.9471,20.4798 408.0541,19.3478 C409.3401,18.0298 409.9821,16.1868 409.9821,13.8188 C409.9821,11.7678 409.4821,10.1038 408.4801,8.8258 C407.3501,7.3848 405.7831,6.6648 403.7811,6.6648 C402.0401,6.6648 400.6111,7.2308 399.4961,8.3618 L399.4961,8.3618 Z M406.7601,13.8428 C406.7601,17.1308 405.7591,18.7748 403.7571,18.7748 C401.7711,18.7748 400.7781,17.1308 400.7781,13.8428 C400.7781,10.5708 401.7791,8.9358 403.7811,8.9358 C405.7671,8.9358 406.7601,10.5708 406.7601,13.8428 L406.7601,13.8428 Z" id="Stroke-92" sketch:type="MSShapeGroup"></path>
                <path d="M413.8516,3.1982 L413.8516,6.9702 L411.8006,6.9702 L411.8006,9.2652 L413.8516,9.2652 L413.8516,17.3702 C413.8516,18.5422 414.1246,19.4262 414.6696,20.0192 C415.2806,20.6862 416.2816,21.0202 417.6726,21.0202 C418.6176,21.0202 419.4346,20.9672 420.1266,20.8622 L420.2476,18.6152 C419.7926,18.7212 419.2596,18.7742 418.6496,18.7742 C417.5186,18.7742 416.9536,18.1152 416.9536,16.7972 L416.9536,9.2652 L420.0296,9.2652 L420.0296,6.9702 L416.9536,6.9702 L416.9536,2.4902 L413.8516,3.1982 L413.8516,3.1982 Z" id="Stroke-93" sketch:type="MSShapeGroup"></path>
                <path d="M423.8125,8.3618 C422.5195,9.6888 421.8725,11.5318 421.8725,13.8918 C421.8725,15.9508 422.3685,17.6148 423.3615,18.8838 C424.4845,20.3248 426.0545,21.0448 428.0735,21.0448 C429.8315,21.0448 431.2635,20.4798 432.3705,19.3478 C433.6565,18.0298 434.2985,16.1868 434.2985,13.8188 C434.2985,11.7678 433.7985,10.1038 432.7965,8.8258 C431.6665,7.3848 430.0995,6.6648 428.0975,6.6648 C426.3565,6.6648 424.9275,7.2308 423.8125,8.3618 L423.8125,8.3618 Z M431.0765,13.8428 C431.0765,17.1308 430.0755,18.7748 428.0735,18.7748 C426.0875,18.7748 425.0945,17.1308 425.0945,13.8428 C425.0945,10.5708 426.0955,8.9358 428.0975,8.9358 C430.0835,8.9358 431.0765,10.5708 431.0765,13.8428 L431.0765,13.8428 Z" id="Stroke-94" sketch:type="MSShapeGroup"></path>
                <path d="M447.0801,5.5176 C446.4201,5.8516 445.8511,6.4536 445.3711,7.3246 C444.5571,6.8846 443.5841,6.6646 442.4531,6.6646 C440.9721,6.6646 439.7471,7.0186 438.7791,7.7266 C437.6401,8.5406 437.0701,9.6556 437.0701,11.0716 C437.0701,12.6586 437.7211,13.8676 439.0231,14.6976 C437.6231,15.5766 436.9241,16.5246 436.9241,17.5416 C436.9241,18.5756 437.5661,19.2346 438.8511,19.5186 C437.1681,20.1296 436.3251,21.0206 436.3251,22.1926 C436.3251,23.1366 436.7891,23.9016 437.7171,24.4876 C438.8231,25.1786 440.4191,25.5246 442.5021,25.5246 C444.5281,25.5246 446.1561,25.1786 447.3851,24.4876 C448.7261,23.7226 449.3981,22.6766 449.3981,21.3506 C449.3981,20.3736 449.1051,19.6126 448.5191,19.0676 C447.7791,18.4006 446.4891,17.9766 444.6501,17.7976 L441.5501,17.5416 C440.8341,17.4766 440.3371,17.3746 440.0601,17.2366 C439.7841,17.0986 439.6441,16.8666 439.6441,16.5406 C439.6441,16.0766 439.9791,15.6786 440.6461,15.3446 C441.2001,15.4986 441.7941,15.5766 442.4291,15.5766 C443.9261,15.5766 445.1551,15.2266 446.1151,14.5266 C447.2551,13.7046 447.8241,12.5446 447.8241,11.0476 C447.8241,9.9896 447.4501,9.0746 446.7011,8.3006 C446.9861,8.0486 447.2691,7.8736 447.5561,7.7756 C447.9221,7.6536 448.4551,7.5926 449.1541,7.5926 L449.3501,5.0656 C448.4141,5.0656 447.6571,5.2166 447.0801,5.5176 L447.0801,5.5176 Z M444.1251,9.0946 C444.6711,9.5666 444.9431,10.2176 444.9431,11.0476 C444.9431,11.8366 444.7361,12.4716 444.3201,12.9516 C443.8651,13.4646 443.2381,13.7206 442.4411,13.7206 C441.7491,13.7206 441.1841,13.5216 440.7441,13.1226 C440.2151,12.6426 439.9511,11.9426 439.9511,11.0226 C439.9511,10.3146 440.1581,9.7336 440.5731,9.2776 C441.0451,8.7726 441.6681,8.5206 442.4411,8.5206 C443.1161,8.5206 443.6781,8.7116 444.1251,9.0946 L444.1251,9.0946 Z M444.1501,20.2516 C445.0861,20.3496 445.7411,20.5076 446.1151,20.7276 C446.4891,20.9556 446.6771,21.3296 446.6771,21.8506 C446.6771,22.3306 446.3881,22.7336 445.8101,23.0596 C445.0861,23.4656 444.0401,23.6696 442.6731,23.6696 C441.6061,23.6696 440.7401,23.5226 440.0721,23.2296 C439.2911,22.8886 438.9001,22.3996 438.9001,21.7656 C438.9001,20.9106 439.5161,20.2886 440.7441,19.8976 L444.1501,20.2516 L444.1501,20.2516 Z" id="Stroke-95" sketch:type="MSShapeGroup"></path>
                <path d="M455.002,10.3394 L455.002,6.9704 L452.048,6.9704 L452.048,20.6914 L455.148,20.6914 L455.148,13.0984 C455.995,10.7784 457.293,9.6194 459.043,9.6194 L459.25,6.6654 C457.305,6.6654 455.889,7.8904 455.002,10.3394 L455.002,10.3394 Z" id="Stroke-96" sketch:type="MSShapeGroup"></path>
                <path d="M464.3896,11.2183 C464.5196,10.5023 464.8006,9.9323 465.2326,9.5093 C465.7026,9.0453 466.2976,8.8133 467.0136,8.8133 C467.7946,8.8133 468.3726,8.9763 468.7476,9.3013 C469.1786,9.6843 469.3946,10.3313 469.3946,11.2423 L469.3946,12.0243 C467.8886,12.0723 466.5826,12.2033 465.4766,12.4143 C462.4896,12.9923 460.9946,14.5023 460.9946,16.9433 C460.9946,18.0993 461.3376,19.0433 462.0216,19.7753 C462.7946,20.6053 463.8606,21.0203 465.2196,21.0203 C467.1166,21.0203 468.5566,20.3123 469.5406,18.8963 C469.6066,19.5803 469.6836,20.1783 469.7736,20.6913 L472.6656,20.6913 C472.5196,19.3163 472.4466,17.9653 472.4466,16.6383 L472.4466,11.1943 C472.4466,8.1583 470.6716,6.6403 467.1226,6.6403 C464.0476,6.6403 462.1566,7.9023 461.4476,10.4253 L464.3896,11.2183 L464.3896,11.2183 Z M469.3946,16.5163 C468.5966,18.0223 467.5316,18.7743 466.1966,18.7743 C464.7316,18.7743 463.9976,18.0833 463.9976,16.6993 C463.9976,15.5033 464.7476,14.7263 466.2436,14.3673 C467.2946,14.1233 468.3446,13.9893 469.3946,13.9653 L469.3946,16.5163 L469.3946,16.5163 Z" id="Stroke-97" sketch:type="MSShapeGroup"></path>
                <path d="M476.4014,6.9702 L476.4014,25.5122 L479.5264,25.5122 L479.5264,18.7622 C480.3564,20.2682 481.5564,21.0202 483.1274,21.0202 C484.5514,21.0202 485.7484,20.4752 486.7164,19.3852 C487.9044,18.0502 488.4984,16.1702 488.4984,13.7452 C488.4984,11.6212 488.0634,9.9322 487.1924,8.6792 C486.2484,7.3362 484.9424,6.6652 483.2734,6.6652 C481.6624,6.6652 480.3804,7.4422 479.4284,8.9962 L479.4284,6.9702 L476.4014,6.9702 L476.4014,6.9702 Z M482.4804,9.1182 C483.2544,9.1182 483.8804,9.4402 484.3604,10.0832 C484.9704,10.8972 485.2754,12.1422 485.2754,13.8182 C485.2754,15.3002 485.0194,16.4552 484.5064,17.2852 C483.9774,18.1562 483.2414,18.5912 482.2974,18.5912 C481.1094,18.5912 480.1854,17.8262 479.5264,16.2962 L479.5264,11.4382 C480.2024,9.8922 481.1864,9.1182 482.4804,9.1182 L482.4804,9.1182 Z" id="Stroke-98" sketch:type="MSShapeGroup"></path>
                <path d="M491.7207,0.9399 L491.7207,20.6909 L494.8697,20.6909 L494.8697,11.7429 C495.2687,11.0759 495.7327,10.5349 496.2617,10.1199 C496.8797,9.6309 497.4827,9.3869 498.0687,9.3869 C499.3377,9.3869 499.9727,10.1559 499.9727,11.6939 L499.9727,20.6909 L503.1957,20.6909 L503.1957,10.7909 C503.1957,9.5949 502.8697,8.6299 502.2187,7.8979 C501.5027,7.0919 500.5217,6.6899 499.2777,6.6899 C497.5687,6.6899 496.0987,7.5559 494.8697,9.2899 L494.8697,0.9399 L491.7207,0.9399 L491.7207,0.9399 Z" id="Stroke-99" sketch:type="MSShapeGroup"></path>
                <path d="M506.846,20.691 L510.422,20.691 L510.422,17.236 L506.846,17.236 L506.846,20.691 Z" id="Stroke-100" sketch:type="MSShapeGroup"></path>
                <path d="M513.8164,1.2939 L513.8164,4.6629 L515.5974,4.6629 L513.9374,8.5569 L515.5124,8.5569 L517.3434,4.6629 L517.3434,1.2939 L513.8164,1.2939 L513.8164,1.2939 Z M518.7354,1.2939 L518.7354,4.6629 L520.5174,4.6629 L518.8574,8.5569 L520.4314,8.5569 L522.2634,4.6629 L522.2634,1.2939 L518.7354,1.2939 L518.7354,1.2939 Z" id="Stroke-101" sketch:type="MSShapeGroup"></path>
            </g>
        </g>
    </g>
</svg>