<?xml version="1.0" encoding="UTF-8" standalone="no"?>
<svg width="62px" height="62px" viewBox="0 0 62 62" version="1.1" xmlns="http://www.w3.org/2000/svg" xmlns:xlink="http://www.w3.org/1999/xlink" xmlns:sketch="http://www.bohemiancoding.com/sketch/ns">
    <!-- Generator: Sketch 3.4.4 (17249) - http://www.bohemiancoding.com/sketch -->
    <title>twitter + Twitter_bird_logo_2012</title>
    <desc>Created with Sketch.</desc>
    <defs></defs>
    <g id="about" stroke="none" stroke-width="1" fill="none" fill-rule="evenodd" sketch:type="MSPage">
        <g id="White-about" sketch:type="MSArtboardGroup" transform="translate(-781.000000, -2685.000000)">
            <rect id="footer-copy" fill="#807565" sketch:type="MSShapeGroup" x="0" y="2609" width="1440" height="276"></rect>
            <g id="icons-copy-2" sketch:type="MSLayerGroup" transform="translate(610.000000, 2685.000000)">
                <g id="twitter-+-Twitter_bird_logo_2012" transform="translate(171.000000, 0.000000)" sketch:type="MSShapeGroup">
                    <path d="M31,61.879357 C48.1208272,61.879357 62,48.0271911 62,30.9396785 C62,13.8521659 48.1208272,0 31,0 C13.8791728,0 0,13.8521659 0,30.9396785 C0,48.0271911 13.8791728,61.879357 31,61.879357 Z" id="twitter" fill="#6AC4E4"></path>
                    <g id="Twitter_bird_logo_2012" transform="translate(30.488421, 30.813123) scale(-1, 1) rotate(-180.000000) translate(-30.488421, -30.813123) translate(14.988421, 18.313123)" fill="#FFFFFF">
                        <path d="M27.2498007,20.7400844 C28.5099914,21.4959594 29.4776107,22.6922807 29.9334475,24.1175 C28.7540187,23.4176359 27.447896,22.9099896 26.0566577,22.6363569 C24.9436234,23.822534 23.3569021,24.5639763 21.6010378,24.5639763 C18.2292821,24.5639763 15.496438,21.8309146 15.496438,18.4593765 C15.496438,17.9807261 15.5499238,17.514658 15.6544353,17.0681382 C10.5805841,17.3223967 6.08229753,19.7535264 3.07124936,23.4465883 C2.5457309,22.5453637 2.24471315,21.4968301 2.24471315,20.3778531 C2.24471315,18.2595833 3.32202492,16.3913489 4.9605776,15.2961651 C3.9598917,15.3274467 3.0184167,15.6021896 2.19529818,16.0597679 C2.19436212,16.0340808 2.19436212,16.008655 2.19436212,15.9831421 C2.19436212,13.0247742 4.29896115,10.5579438 7.09145146,9.9967464 C6.57962551,9.85720896 6.0404363,9.78341303 5.48361443,9.78341303 C5.08984021,9.78341303 4.70803878,9.82065929 4.33464007,9.89225658 C5.11202252,7.46700444 7.36615083,5.70177962 10.0380425,5.65236465 C7.94698359,4.01470449 5.31510283,3.03924852 2.45469414,3.03924852 C1.96226412,3.03924852 1.47595111,3.06824445 0.99797551,3.12436419 C3.70077873,1.39227135 6.90926911,0.381941914 10.3572153,0.381941914 C21.5859521,0.381941914 27.7255995,9.68393001 27.7255995,17.7518499 C27.7255995,18.016405 27.7195042,18.2791534 27.7084022,18.5409657 C28.9006745,19.4023753 29.935559,20.4772925 30.754498,21.7017826 C29.6613386,21.2161879 28.484522,20.8879593 27.2498007,20.7400844 Z" id="path22"></path>
                    </g>
                </g>
            </g>
        </g>
    </g>
</svg>